<?xml version="1.0" encoding="UTF-8"?>
<svg version="1.1" xmlns="http://www.w3.org/2000/svg" width="8334" height="3697">
<path d="M0 0 C347.16 0 694.32 0 1052 0 C1052 110.2680425 1052 110.2680425 1048.25 145.8125 C1048.12644638 147.01573914 1048.12644638 147.01573914 1048.00039673 148.24328613 C1041.86210127 207.61149551 1029.6121439 266.39063228 1010.66418457 323.00415039 C1010.00449692 324.98648694 1009.35539242 326.97196429 1008.70996094 328.95898438 C991.5581883 381.72038697 968.14809776 433.20150554 940 481 C939.45408203 481.94149902 938.90816406 482.88299805 938.34570312 483.85302734 C930.5666135 497.26594219 922.28884189 510.29212863 913.6875 523.1875 C913.00036423 524.21843781 913.00036423 524.21843781 912.29934692 525.27020264 C904.19762481 537.40178275 895.84575738 549.34984169 887.0625 561 C886.56580811 561.6602417 886.06911621 562.3204834 885.55737305 563.00073242 C874.63205164 577.47267439 863.18990747 591.51077787 851.43261719 605.31298828 C850.01400845 606.98350403 848.60406198 608.66101042 847.1953125 610.33984375 C833.95741453 626.04429868 819.53125416 640.63632536 804.99707031 655.13330078 C802.47081971 657.65411752 799.95005856 660.18033738 797.4296875 662.70703125 C795.79719606 664.33886292 794.16439499 665.97038491 792.53125 667.6015625 C791.79152954 668.34330719 791.05180908 669.08505188 790.28967285 669.84927368 C786.22578133 673.89508575 782.07218744 677.77566051 777.72358704 681.51452637 C775.32726993 683.57979247 773.01104298 685.72852328 770.6875 687.875 C766.20337072 691.96437787 761.59732762 695.84619021 756.875 699.65625 C754.30655787 701.75008869 751.77986704 703.88156979 749.26293945 706.03637695 C742.97338578 711.41657498 736.53548024 716.56395336 729.92578125 721.546875 C727.75881022 723.1819931 725.59846438 724.8257027 723.4375 726.46875 C667.10009646 769.16504094 605.8754824 804.16349709 540.86767578 831.75683594 C540.21585831 832.03401459 539.56404083 832.31119324 538.89247131 832.59677124 C537.11764853 833.35015568 535.34122599 834.09976824 533.56469727 834.84912109 C531.11624611 835.76520882 531.11624611 835.76520882 530 837 C530.70157227 837.29543701 531.40314453 837.59087402 532.12597656 837.89526367 C565.07163034 851.80404996 597.42151115 866.70055336 628.44482422 884.54101562 C630.672957 885.81326113 632.9104972 887.06324459 635.16015625 888.296875 C651.60097682 897.32275544 667.53308219 907.3959497 683 918 C684.21081549 918.82179438 685.42176245 919.64339507 686.6328125 920.46484375 C716.6857609 940.91681918 745.74220355 963.1481496 772.53515625 987.75 C774.58115954 989.61766703 776.65017157 991.44369597 778.75 993.25 C790.63038117 1003.64827421 801.83033158 1014.72634842 813 1025.875 C813.63787445 1026.51028625 814.2757489 1027.14557251 814.93295288 1027.80010986 C827.29756159 1040.12519346 827.29756159 1040.12519346 832.56738281 1046.32226562 C834.9129857 1049.06919525 837.40435767 1051.67850598 839.875 1054.3125 C844.33826707 1059.10995628 848.56974429 1064.03162373 852.671875 1069.14453125 C854.81420035 1071.77211485 857.01153751 1074.33415518 859.23876953 1076.88916016 C866.0154605 1084.67304913 872.29256062 1092.77955201 878.50097656 1101.02050781 C879.85032608 1102.80235242 881.21269282 1104.57248122 882.5859375 1106.3359375 C909.06945658 1140.36168855 932.49263473 1177.20097324 952.59033203 1215.33203125 C953.87878702 1217.77058963 955.18359285 1220.19932538 956.49609375 1222.625 C993.33267935 1291.05085868 1019.39428545 1365.33708554 1049.75 1544.625 C1049.83888489 1545.7105014 1049.83888489 1545.7105014 1049.92956543 1546.81793213 C1053.31092097 1588.88938049 1052 1630.65207693 1052 1673 C704.84 1673 357.68 1673 0 1673 C0 1120.91 0 568.82 0 0 Z M915.3431946 118.1538887 C914.23171327 118.18829072 913.12023193 118.22269273 911.97506934 118.25813723 C910.15531956 118.31589366 910.15531956 118.31589366 908.29880714 118.37481689 C906.34848118 118.43559835 906.34848118 118.43559835 904.35875469 118.49760771 C900.74013304 118.61040774 897.12154914 118.72438101 893.50297018 118.83854097 C889.56994289 118.96241431 885.63688156 119.08519801 881.7038244 119.20811844 C874.80759733 119.42379817 867.91139247 119.64017682 861.01520157 119.85700989 C850.76078098 120.17943074 840.50632691 120.50077675 830.25186562 120.82190025 C813.00306781 121.36208542 795.75429756 121.90314568 778.50554276 122.44470215 C761.42348178 122.9810221 744.34140872 123.51695466 727.25931931 124.05236816 C726.19779011 124.08564049 725.13626091 124.11891281 724.04256417 124.15319338 C718.65174369 124.32215998 713.26092299 124.49111963 707.87010221 124.66007662 C669.67232972 125.85726868 631.4745846 127.05533185 593.27685547 128.25390625 C556.16489011 129.41840939 519.05291243 130.58251861 481.94091797 131.74609375 C480.7972603 131.78195109 479.65360263 131.81780843 478.47528866 131.85475236 C466.99036227 132.21484126 455.50543562 132.57492215 444.02050879 132.93499716 C420.62372763 133.66853237 397.22694815 134.40212111 373.83016968 135.13574219 C372.7543889 135.16947392 371.67860813 135.20320566 370.57022793 135.23795956 C298.71345717 137.4910767 226.85672554 139.74544132 155 142 C155 142.33 155 142.66 155 143 C161.40529314 144.1008367 167.76872894 144.28925977 174.25744534 144.48224735 C175.49759821 144.52223379 176.73775109 144.56222023 178.01548436 144.60341838 C181.46104929 144.71372159 184.90669058 144.82052834 188.35240872 144.92586796 C192.10015578 145.041299 195.84775865 145.16124904 199.5953818 145.28062385 C206.16517315 145.4892665 212.73505056 145.6950023 219.30499268 145.89883995 C229.07555156 146.20198751 238.84596676 146.5095863 248.61635849 146.81806854 C266.06995003 147.36898318 283.52367932 147.91543025 300.97746999 148.45999561 C316.26209567 148.93689287 331.54667476 149.41525052 346.83120918 149.8950634 C347.84482355 149.92688064 348.85843791 149.95869787 349.90276787 149.99147927 C354.01747847 150.12064075 358.1321889 150.24980803 362.24689903 150.37898468 C400.8703946 151.59149796 439.49403069 152.79948132 478.11773178 154.00542838 C512.40371977 155.07596679 546.68958232 156.15043955 580.9753418 157.22827148 C619.50226279 158.43941727 658.02925883 159.64812999 696.55637938 160.85291237 C700.66889399 160.98152123 704.78140843 161.11013571 708.89392281 161.23875237 C710.412806 161.28625131 710.412806 161.28625131 711.96237371 161.33470982 C727.22250652 161.81197048 742.48258098 162.29106681 757.7426281 162.77105904 C775.11538826 163.31749324 792.48823106 163.86121341 809.86118608 164.4014184 C819.57211675 164.70345025 829.28297862 165.00751274 838.99375117 165.31458738 C845.49704027 165.52002322 852.00041223 165.72268293 858.50385564 165.92317383 C862.19853714 166.03714951 865.89317365 166.1522352 869.58771359 166.27071781 C886.3964302 166.80889599 903.18183931 167.13476764 920 167 C922.04439214 157.28943716 923.71772282 147.63633197 924.93530273 137.78857422 C925.19262905 135.70854058 925.45803214 133.62964785 925.72460938 131.55078125 C926.64837725 124.79648422 926.64837725 124.79648422 927 118 C923.11032628 117.98586368 919.2309027 118.03196124 915.3431946 118.1538887 Z M882.98786259 245.35919952 C881.77428687 245.39803212 880.56071114 245.43686471 879.3103604 245.47687405 C875.93939388 245.58496834 872.5684628 245.69407309 869.19754275 245.80360176 C865.53124502 245.92247893 861.86490527 246.04004681 858.19857067 246.15778017 C851.7721956 246.36432474 845.34584796 246.57170635 838.91951752 246.77963448 C829.3637873 247.0888126 819.8080158 247.39669978 810.25223536 247.70432107 C794.17812812 248.22181811 778.10405488 248.74036414 762.03000069 249.25950623 C746.11265259 249.77358376 730.1952896 250.28719616 714.27790642 250.80018616 C712.79385078 250.84801512 712.79385078 250.84801512 711.27981423 250.89681033 C706.25538508 251.05873798 701.23095567 251.2206573 696.20652615 251.38257343 C660.61039265 252.52970132 625.01429291 253.67787391 589.41821289 254.82666016 C554.83522212 255.94274876 520.25221614 257.05836459 485.66918945 258.17333984 C484.0704366 258.22488477 484.0704366 258.22488477 482.4393857 258.27747101 C471.73591578 258.62255797 461.03244554 258.96763531 450.32897508 259.31270561 C428.52440424 260.01566565 406.71983547 260.71868988 384.91526794 261.42175293 C383.91270988 261.45407917 382.91015182 261.48640542 381.87721321 261.51971125 C314.91810746 263.6787322 247.95904997 265.8392496 181 268 C184.04643308 269.75043669 186.33287896 270.27681585 189.8316592 270.38946164 C190.80973511 270.4254914 191.78781103 270.46152117 192.79552561 270.49864274 C193.86968381 270.52868432 194.94384201 270.55872589 196.05055046 270.58967781 C197.19666882 270.62912972 198.34278718 270.66858163 199.5236364 270.70922905 C202.71935149 270.81732487 205.91520438 270.91699382 209.11129568 271.01319494 C212.58319297 271.11974785 216.05472701 271.23711448 219.52631867 271.35312927 C225.61603175 271.55513125 231.70593758 271.75015847 237.79602051 271.94067001 C246.85297052 272.22401871 255.90955207 272.51803431 264.96608968 272.81423682 C280.20505743 273.31232273 295.44429663 273.801589 310.68371201 274.28577042 C325.79148026 274.76577753 340.8991274 275.24933884 356.00662613 275.73775864 C356.94587424 275.76812079 357.88512234 275.79848294 358.85283252 275.82976515 C362.66558509 275.95302713 366.47833684 276.07631455 370.2910875 276.19963577 C405.06734128 277.32444107 439.843881 278.44014336 474.62060547 279.55029297 C507.42484345 280.59747722 540.22888505 281.65055385 573.03271484 282.71044922 C574.04191937 282.7430554 575.05112389 282.77566157 576.09091037 282.80925582 C579.14409824 282.90790083 582.19728606 283.00654782 585.25047386 283.10519516 C589.30611148 283.23623061 593.36174921 283.36726281 597.41738701 283.49829292 C598.41816495 283.53062765 599.4189429 283.56296237 600.45004745 283.59627694 C631.77609289 284.60835274 663.10230507 285.6152446 694.42854773 286.62119505 C704.81547451 286.95474149 715.20239116 287.28859726 725.58927679 287.6234231 C726.52260173 287.65350847 727.45592666 287.68359384 728.41753417 287.71459089 C729.81453862 287.7596232 729.81453862 287.7596232 731.23976539 287.80556525 C749.21857082 288.38510311 767.1974458 288.9623771 785.17648052 289.5347618 C793.38972236 289.79629368 801.60292709 290.05886938 809.81603241 290.32465744 C816.63403617 290.54529776 823.452111 290.76355138 830.27029105 290.97867844 C833.69559035 291.08682036 837.12082636 291.19639248 840.54600416 291.30835141 C856.03721426 291.81392542 871.50026709 292.11743933 887 292 C887.3981617 290.8167791 887.79632339 289.6335582 888.2065506 288.41448212 C888.43051655 287.74892036 888.65448251 287.0833586 888.88523531 286.39762831 C889.91347917 283.34041984 890.93771859 280.28187346 891.9621582 277.22338867 C892.52257361 275.55211828 893.08407138 273.88121038 893.64672852 272.21069336 C896.67994989 263.20269993 899.68596978 254.22650337 902 245 C895.65640877 244.94819901 889.32765819 245.15164447 882.98786259 245.35919952 Z M843.81691837 373.13235128 C842.49076793 373.17673525 842.49076793 373.17673525 841.13782656 373.22201586 C840.15858418 373.25513542 839.1793418 373.28825498 838.17042542 373.32237816 C836.61287051 373.37466314 836.61287051 373.37466314 835.02384984 373.42800438 C831.50360028 373.54626653 827.98336756 373.66502281 824.46313477 373.78378296 C821.93020743 373.86900255 819.39727926 373.95419732 816.86435032 374.03936923 C810.60696906 374.24987496 804.34959955 374.46072684 798.09223558 374.67174591 C792.88812308 374.84724018 787.68400553 375.02258444 782.4798851 375.19784355 C725.16147264 377.12824921 667.84346282 379.0705421 610.52559545 381.01705952 C602.22702668 381.29887015 593.92845525 381.5806023 585.62988281 381.86230469 C584.71287669 381.89343487 583.79587057 381.92456504 582.85107638 381.95663856 C553.09849273 382.96662254 523.34569607 383.97016348 493.59278037 384.97031388 C463.02484617 385.9978938 432.45713066 387.03174951 401.88968032 388.07362813 C397.57699886 388.22062154 393.26431498 388.36754384 388.95162964 388.51442337 C387.67838982 388.55779034 387.67838982 388.55779034 386.37942798 388.60203341 C372.6911033 389.06807836 359.00256331 389.52748135 345.31393263 389.98444015 C331.56895261 390.44342372 317.82422338 390.90938519 304.07972455 391.38256286 C295.90415986 391.66380672 287.72845296 391.93961621 279.55244939 392.20780525 C273.46262959 392.40815031 267.3731982 392.61845534 261.28385246 392.83277841 C258.80890666 392.91829633 256.33384368 393.00049472 253.85867131 393.07918231 C250.5152621 393.18593938 247.17247272 393.30436473 243.82957458 393.42593956 C242.85033221 393.45437679 241.87108983 393.48281401 240.86217344 393.51211298 C239.97807314 393.54670932 239.09397284 393.58130567 238.18308163 393.61695039 C237.03495555 393.65578957 237.03495555 393.65578957 235.863635 393.69541337 C233.75731359 393.85349052 233.75731359 393.85349052 232 396 C287.41200582 397.90797402 342.82402861 399.81545491 398.23614502 401.72021484 C399.05636532 401.74840959 399.87658562 401.77660435 400.72166109 401.80565348 C418.54759742 402.41840998 436.3735369 403.03107487 454.19947962 403.64364541 C462.94141799 403.94405386 471.68335566 404.24448255 480.42529297 404.54492188 C481.73017924 404.58976716 481.73017924 404.58976716 483.06142685 404.6355184 C511.25414307 405.60443247 539.4468131 406.57468291 567.63945947 407.54562697 C596.61297825 408.5434569 625.58654314 409.53993743 654.56016665 410.53472201 C658.65323259 410.67525456 662.74629801 410.81580252 666.8393631 410.95635986 C668.04771458 410.99785438 668.04771458 410.99785438 669.2804772 411.04018717 C682.24373932 411.48538231 695.2069521 411.93199835 708.17014697 412.37914687 C721.20503694 412.82873803 734.23997779 413.27682958 747.27497175 413.72339582 C755.01763677 413.9886975 762.76026041 414.2551435 770.50282922 414.52323841 C776.28772323 414.72341976 782.07268941 414.92144675 787.85768583 415.118644 C790.19572827 415.19867738 792.53374703 415.27940581 794.87173888 415.3609035 C810.9316927 415.94658143 810.9316927 415.94658143 827 416 C829.15268523 412.25167217 831.30302499 408.50201068 833.45141602 404.7512207 C834.1789993 403.48166701 834.90716726 402.21244818 835.63598633 400.94360352 C839.49262333 394.22842398 843.3191028 387.49773019 847.02734375 380.69921875 C847.88767212 379.12466919 847.88767212 379.12466919 848.76538086 377.51831055 C850.14673375 375.16814525 850.14673375 375.16814525 850 373 C847.93533816 373 845.88046574 373.06291029 843.81691837 373.13235128 Z M700.6252377 505.33802879 C695.47633627 505.53561619 690.32723642 505.72790692 685.17816162 505.9209137 C675.1287826 506.29843842 665.07959334 506.68079866 655.03046511 507.06493514 C646.86562939 507.37694263 638.70072542 507.68710379 630.53577042 507.99597359 C629.36955207 508.04009064 628.20333372 508.0842077 627.00177542 508.12966164 C624.63215281 508.21929286 622.26253002 508.30891911 619.89290704 508.39854044 C597.74268294 509.23648129 575.59266857 510.07986088 553.44272615 510.92521048 C534.43934438 511.65035505 515.43580037 512.37111176 496.43212891 513.08862305 C474.32808764 513.923197 452.22414204 514.76023307 430.12035 515.60138422 C427.76541536 515.69099528 425.41048063 515.7806041 423.05554581 515.87021065 C421.31774997 515.93633823 421.31774997 515.93633823 419.54484715 516.00380171 C411.38111437 516.31428995 403.21731686 516.6230386 395.0534935 516.93113518 C385.11855867 517.30612989 375.18373372 517.68389373 365.24903964 518.06521528 C360.1809835 518.25967497 355.1128882 518.45289675 350.04465866 518.64278793 C345.40801101 518.81654561 340.77151323 518.99385078 336.13511027 519.1740163 C334.45610622 519.23863534 332.77705131 519.30194863 331.09794448 519.36383962 C328.81906909 519.44803255 326.54042553 519.53695607 324.26177788 519.62707424 C322.36180622 519.69941096 322.36180622 519.69941096 320.4234513 519.77320904 C317.22064263 519.98538324 314.15280665 520.40972656 311 521 C311 521.33 311 521.66 311 522 C364.30977801 524.06206041 417.61978577 526.11808698 470.93010993 528.16598165 C477.21887054 528.40756706 483.50762923 528.64920261 489.79638672 528.89086914 C491.04840507 528.93898129 492.30042341 528.98709343 493.59038171 529.03666352 C513.8829972 529.81658128 534.17545373 530.60056378 554.46785477 531.38603932 C575.27801981 532.19146615 596.08834888 532.99254605 616.8988378 533.78956121 C629.74781328 534.28179868 642.59664754 534.77745698 655.44532385 535.27744352 C664.24711287 535.61962691 673.04905711 535.95760125 681.85113701 536.29221804 C686.93517058 536.48561686 692.01911302 536.68091669 697.10288048 536.88119888 C701.75240742 537.06433269 706.40210402 537.24220852 711.0519962 537.41581409 C712.73854033 537.47972739 714.42501119 537.5456092 716.11139563 537.61360598 C718.39547698 537.70542091 720.67971305 537.79020404 722.9641304 537.8731699 C724.8710859 537.94664578 724.8710859 537.94664578 726.81656575 538.02160603 C730.53360279 537.99637843 732.91623556 537.91297232 735.7800293 535.50048828 C736.37211182 534.86353027 736.96419434 534.22657227 737.57421875 533.5703125 C738.23776367 532.86229492 738.90130859 532.15427734 739.58496094 531.42480469 C740.27879883 530.66586914 740.97263672 529.90693359 741.6875 529.125 C742.40067383 528.35575195 743.11384766 527.58650391 743.84863281 526.79394531 C749.14094259 521.04436457 754.18420855 515.15583777 759 509 C760.33235656 507.33255238 761.66557251 505.66579075 763 504 C742.1819015 503.71985335 721.42319707 504.5358411 700.6252377 505.33802879 Z M304.72363281 1143.74804688 C304.15660645 1144.56885742 304.15660645 1144.56885742 303.578125 1145.40625 C301.24251261 1148.68099503 298.72846269 1151.74351749 296.125 1154.8125 C293.63596654 1157.88230794 291.23480666 1161.00732903 288.86669922 1164.1706543 C288.32906952 1164.88851608 287.79143982 1165.60637787 287.23751831 1166.34599304 C286.62494675 1167.16472649 286.62494675 1167.16472649 286 1168 C312.00754366 1167.36852228 338.00485737 1166.5520608 364.00309229 1165.61578953 C369.14216669 1165.43112484 374.28131628 1165.24857318 379.42045593 1165.06573486 C388.27542068 1164.7504208 397.13033925 1164.43383668 405.98522568 1164.1163311 C418.78711161 1163.6573017 431.5890686 1163.20027918 444.39104249 1162.74371005 C465.17317957 1162.00248373 485.95526019 1161.25968651 506.73730469 1160.51586914 C526.89710547 1159.79432615 547.05693319 1159.07354306 567.21679688 1158.35375977 C568.46433852 1158.30921756 569.71188017 1158.26467535 570.9972261 1158.21878337 C577.25723556 1157.9952807 583.51724553 1157.77179273 589.77725577 1157.54831207 C641.51825205 1155.70115361 693.25915648 1153.85143217 745 1152 C745 1151.67 745 1151.34 745 1151 C666.20081483 1148.00875707 587.39965451 1145.07774107 492.55254745 1141.67835808 C491.79668335 1141.65132414 491.04081924 1141.6242902 490.26205017 1141.59643704 C489.5056796 1141.56938508 488.74930903 1141.54233312 487.97001815 1141.5144614 C486.44046131 1141.45975503 484.91090448 1141.40504849 483.38134766 1141.3503418 C482.6238465 1141.32325088 481.86634534 1141.29615995 481.08588961 1141.2682481 C468.51062387 1140.81844013 455.93547514 1140.36543674 443.36036621 1139.91126838 C430.14292013 1139.43394639 416.92538415 1138.95918275 403.70775425 1138.48697788 C396.40462548 1138.22601377 389.10153678 1137.9640341 381.79854965 1137.69913292 C375.03528545 1137.4538191 368.27190456 1137.21201674 361.50843048 1136.97254753 C359.05226842 1136.88503826 356.59614651 1136.79639241 354.14007187 1136.70646286 C347.71772465 1136.47165388 341.29570197 1136.26158111 334.87137747 1136.08894706 C332.05249722 1136.00162621 329.23733407 1135.87508037 326.42016983 1135.74454689 C324.71506716 1135.68962389 323.00991794 1135.63612066 321.30471802 1135.58430481 C320.17638103 1135.51597412 320.17638103 1135.51597412 319.02524936 1135.44626302 C312.08186261 1135.30469549 308.9363716 1138.8103483 304.72363281 1143.74804688 Z M219.14467663 1260.30213404 C217.39318764 1262.97227301 216.17926242 1265.62875465 215.02587891 1268.60058594 C213.2829061 1272.67720107 211.04427167 1276.48268019 208.88720703 1280.3515625 C207.11804389 1283.5253569 205.37900886 1286.71276988 203.66015625 1289.9140625 C203.17168213 1290.8210791 202.68320801 1291.7280957 202.17993164 1292.66259766 C200.90048948 1295.05650139 200.90048948 1295.05650139 200 1298 C231.17293168 1297.31399808 262.33518762 1296.35757647 293.49900972 1295.34442244 C300.6385579 1295.11238345 307.77816892 1294.88230275 314.91778127 1294.65224817 C328.08367267 1294.22796146 341.24951597 1293.80220029 354.41533089 1293.37554741 C367.41858601 1292.95416747 380.42186308 1292.53347444 393.42516899 1292.11366463 C394.23890892 1292.08739278 395.05264885 1292.06112093 395.89104756 1292.03405296 C400.0249664 1291.90059158 404.15888563 1291.76714213 408.29280501 1291.63369728 C437.44223411 1290.69271866 466.5916149 1289.75025147 495.7409668 1288.80688477 C524.02870252 1287.8914062 552.3164604 1286.97661691 580.60424805 1286.06274414 C581.47885441 1286.0344886 582.35346077 1286.00623307 583.25457035 1285.9771213 C592.03910809 1285.69332373 600.82364627 1285.40953998 609.60818478 1285.12576637 C627.49737297 1284.54787803 645.38655818 1283.96989746 663.27574158 1283.39186096 C664.50904771 1283.35201046 664.50904771 1283.35201046 665.76726911 1283.3113549 C720.51156278 1281.54245064 775.25578675 1279.77139084 830 1278 C830 1277.67 830 1277.34 830 1277 C774.5526095 1275.1863484 719.10518952 1273.37360032 663.65760803 1271.5657959 C662.83608688 1271.53901089 662.01456573 1271.51222587 661.16815 1271.48462919 C643.31139697 1270.9024302 625.45463851 1270.3203978 607.59787446 1269.73853686 C598.84006959 1269.45316362 590.08226593 1269.16775359 581.32446289 1268.88232422 C580.45298737 1268.85392221 579.58151186 1268.8255202 578.68362799 1268.79625752 C550.47076756 1267.87676295 522.25798705 1266.95484227 494.04524726 1266.03165438 C465.03672692 1265.08243956 436.02812711 1264.13569045 407.01942604 1263.19201409 C402.91583343 1263.05851978 398.81224173 1262.92499748 394.70865059 1262.79145813 C393.90105829 1262.76517827 393.09346599 1262.73889841 392.26140119 1262.71182219 C379.29656377 1262.28986156 366.33181191 1261.86532573 353.36709072 1261.43981047 C340.31188403 1261.011381 327.25658985 1260.58570357 314.20120382 1260.16277397 C306.45859582 1259.9118699 298.71606133 1259.6589173 290.97361991 1259.40292351 C285.16929241 1259.21124508 279.36484155 1259.02353941 273.56033761 1258.8372882 C271.22881113 1258.76187641 268.8973242 1258.68522844 266.56588577 1258.60714167 C260.38281247 1258.40042255 254.20011855 1258.21847639 248.01521198 1258.07628453 C245.93388846 1258.02362727 243.85280555 1257.96082327 241.772029 1257.88976467 C238.59085392 1257.78317636 235.41036669 1257.7094546 232.22814274 1257.64241791 C231.26581318 1257.60323043 230.30348362 1257.56404294 229.31199255 1257.52366796 C223.7751657 1257.42707562 223.7751657 1257.42707562 219.14467663 1260.30213404 Z M163 1382 C162.39430931 1383.80017578 162.39430931 1383.80017578 161.77638245 1385.63671875 C161.54924844 1386.31178467 161.32211443 1386.98685059 161.08809757 1387.68237305 C160.05046684 1390.76785768 159.01677994 1393.85465991 157.98291016 1396.94140625 C157.415649 1398.63318113 156.84730764 1400.32459425 156.27783203 1402.015625 C155.45575841 1404.45737083 154.63767988 1406.90042533 153.8203125 1409.34375 C153.56814972 1410.08991577 153.31598694 1410.83608154 153.05618286 1411.6048584 C151.47037982 1416.36126978 150.16163362 1421.12210282 149 1426 C162.95073643 1426.15380905 176.87817501 1425.70644609 190.82079548 1425.27247801 C194.33045802 1425.16378884 197.84020729 1425.05796681 201.34994578 1424.95176357 C207.48826012 1424.76563263 213.62651742 1424.57770676 219.76473999 1424.3885746 C228.89341253 1424.10730747 238.02216954 1423.82885815 247.15094524 1423.55096185 C262.51757342 1423.08309213 277.88413093 1422.61293866 293.2506485 1422.14145088 C308.47672592 1421.67427561 323.70283207 1421.20805509 338.92897797 1420.74311638 C339.87762122 1420.71414822 340.82626448 1420.68518006 341.8036545 1420.65533408 C345.65497827 1420.53773163 349.50630225 1420.42013625 353.35762652 1420.30255012 C388.44323313 1419.2313378 423.52876774 1418.15778581 458.61425781 1417.08276367 C491.68322201 1416.06952937 524.7522294 1415.05772123 557.82128906 1414.04760742 C559.34810948 1414.00096926 559.34810948 1414.00096926 560.90577475 1413.9533889 C566.033088 1413.79677049 571.16040132 1413.64015407 576.28771465 1413.48353779 C577.29966689 1413.45262712 578.31161914 1413.42171646 579.35423661 1413.3898691 C581.39495771 1413.32753425 583.43567883 1413.26519984 585.47639997 1413.20286589 C618.05154038 1412.20784682 650.626645 1411.21165691 683.20174231 1410.21522786 C692.72137879 1409.9240387 702.24101698 1409.63290572 711.76065922 1409.34190488 C731.78012339 1408.7299308 751.79957624 1408.11759139 771.81898895 1407.50393576 C780.09374693 1407.25029909 788.36851104 1406.99686764 796.64329529 1406.74408913 C803.5161289 1406.53413689 810.38894727 1406.32369399 817.26174657 1406.11262125 C820.71089109 1406.00670663 824.16004361 1405.90107612 827.60921183 1405.79593451 C845.40833234 1405.25317374 863.20459586 1404.65323139 881 1404 C881 1403.67 881 1403.34 881 1403 C815.83171992 1400.99514451 750.66340455 1398.99143801 685.49490356 1396.99377441 C684.52914585 1396.96416993 683.56338813 1396.93456544 682.56836503 1396.90406384 C661.57576898 1396.26056035 640.58316668 1395.6172612 619.59055793 1394.97417232 C609.29458303 1394.65876355 598.99860951 1394.34330965 588.70263672 1394.02783203 C587.67810772 1393.99644033 586.65357872 1393.96504864 585.59800338 1393.93270568 C552.43837477 1392.91666938 519.27883838 1391.89765849 486.11934892 1390.87709168 C452.02067017 1389.82763478 417.92189981 1388.78120551 383.82301263 1387.73854189 C378.99785351 1387.59099849 374.17269543 1387.44342078 369.34753799 1387.29582214 C368.39795315 1387.26677598 367.44836831 1387.23772982 366.47000817 1387.20780348 C351.23403067 1386.74167314 335.99815196 1386.27238669 320.76230855 1385.80189578 C305.4150499 1385.32803261 290.06769043 1384.85755199 274.72022496 1384.39043438 C265.62156573 1384.11340587 256.52299185 1383.83387387 247.42452488 1383.55059967 C241.32147896 1383.36084332 235.21833421 1383.17451286 229.11510373 1382.99078944 C225.65379426 1382.88650195 222.19257117 1382.78036883 218.73141502 1382.67105132 C200.14537925 1382.08519592 181.59337461 1381.8969249 163 1382 Z M131 1507 C129.09024747 1517.07626841 127.53185153 1527.12763218 126.3125 1537.3125 C126.18125732 1538.40361084 126.05001465 1539.49472168 125.91479492 1540.61889648 C125.42808569 1544.78971057 125 1548.79507666 125 1553 C134.08887984 1553.04193175 143.15923554 1552.93654763 152.2437191 1552.65921116 C153.50545588 1552.62236653 154.76719266 1552.58552191 156.06716388 1552.54756078 C159.540761 1552.44606827 163.01427763 1552.34202779 166.48778572 1552.2375388 C170.27781053 1552.12399163 174.06790655 1552.01286756 177.85799372 1551.9014253 C184.49151476 1551.70604466 191.12498894 1551.5091321 197.7584343 1551.31119919 C207.62331289 1551.01684989 217.48826102 1550.72488328 227.35322415 1550.43338268 C244.97712909 1549.91253499 262.60096369 1549.38933762 280.22476991 1548.86516136 C295.65409095 1548.40626425 311.08343627 1547.94819354 326.51280594 1547.49093437 C327.5370299 1547.46057987 328.56125386 1547.43022536 329.61651491 1547.39895103 C333.77448152 1547.27572453 337.93244824 1547.15250231 342.09041515 1547.02928622 C381.09167193 1545.87352413 420.09285965 1544.71544704 459.09401469 1543.55625764 C493.70992421 1542.52741841 528.32588568 1541.5003452 562.94189453 1540.47485352 C571.80121567 1540.21239603 580.66053677 1539.94993736 589.51985741 1539.68746281 C591.1561106 1539.63898579 591.1561106 1539.63898579 592.82541941 1539.58952944 C621.77991344 1538.73167376 650.73436709 1537.87245751 679.68880808 1537.01281351 C682.80687629 1536.92024071 685.9249445 1536.82766819 689.04301273 1536.73509621 C691.11131207 1536.67369042 693.17961137 1536.61228357 695.24791065 1536.55087567 C709.63769269 1536.12365358 724.02749031 1535.69695958 738.41729887 1535.27063176 C756.97394654 1534.72085171 775.53056583 1534.17012924 794.08713679 1533.61776597 C803.88909444 1533.32602377 813.69107427 1533.03505441 823.49308897 1532.74523529 C830.05698256 1532.55107726 836.62084398 1532.35585556 843.18468121 1532.1598017 C846.91370889 1532.04844837 850.64274769 1531.93751966 854.37182645 1531.82788933 C871.2532571 1531.331263 888.12795883 1530.75533473 905 1530 C905 1529.67 905 1529.34 905 1529 C834.82121013 1526.89961244 764.64238349 1524.80045489 694.46336365 1522.70776367 C692.90327419 1522.66124233 692.90327419 1522.66124233 691.31166778 1522.61378117 C668.7038163 1521.93963001 646.0959583 1521.26569753 623.48809359 1520.59199005 C612.3998574 1520.26156266 601.31162266 1519.93108699 590.22338867 1519.60058594 C588.56834359 1519.55125613 588.56834359 1519.55125613 586.87986326 1519.50092976 C551.17060491 1518.43656701 515.46144259 1517.36902138 479.75232912 1516.29981034 C443.03090496 1515.20030537 406.30938542 1514.1040411 369.58774428 1513.01180579 C364.3911006 1512.85723719 359.19445801 1512.70263186 353.99781609 1512.54800415 C352.97512654 1512.51757484 351.95243699 1512.48714553 350.89875685 1512.45579412 C334.49177889 1511.96752334 318.0849038 1511.4758757 301.67806544 1510.98293844 C285.15006042 1510.48643387 268.62195047 1509.99355066 252.09373016 1509.50426459 C242.29583563 1509.21410938 232.49803007 1508.92127727 222.70033572 1508.62443775 C216.12737646 1508.42557344 209.55431437 1508.23037846 202.98116299 1508.03796989 C199.25391938 1507.9287671 195.52673525 1507.81815816 191.79967029 1507.70300615 C171.52585385 1507.07799906 151.28149426 1506.89332502 131 1507 Z " fill="#AF47B6" transform="translate(1093,1012)"/>
<path d="M0 0 C84.48 0 168.96 0 256 0 C256.33 232.32 256.66 464.64 257 704 C267.67766363 691.67961888 278.33848842 679.35063434 288.85595703 666.89404297 C292.72106537 662.31989291 296.61816847 657.77370099 300.51953125 653.23046875 C304.31769348 648.80418667 308.08960747 644.35640661 311.85107422 639.89892578 C315.25317557 635.87137528 318.68593583 631.87099984 322.125 627.875 C325.70626602 623.7131582 329.2315813 619.51730831 332.6875 615.25 C336.24267904 610.86848205 339.96769537 606.68289319 343.765625 602.51171875 C346.00134533 599.99848768 348.13377682 597.42688521 350.25 594.8125 C354.41084769 589.67305572 358.71734489 584.67673848 363.05932617 579.69091797 C366.59159995 575.63216743 370.09432856 571.55114718 373.5625 567.4375 C377.35414489 562.94017638 381.16728302 558.46238201 385 554 C388.85138938 549.5150648 392.686331 545.01705464 396.5 540.5 C400.815252 535.38885138 405.16166658 530.30530858 409.51953125 525.23046875 C412.86292298 521.33416469 416.18792482 517.42294783 419.5 513.5 C423.815252 508.38885138 428.16166658 503.30530858 432.51953125 498.23046875 C435.86292298 494.33416469 439.18792482 490.42294783 442.5 486.5 C446.815252 481.38885138 451.16166658 476.30530858 455.51953125 471.23046875 C458.86292298 467.33416469 462.18792482 463.42294783 465.5 459.5 C469.815252 454.38885138 474.16166658 449.30530858 478.51953125 444.23046875 C481.86292298 440.33416469 485.18792482 436.42294783 488.5 432.5 C492.815252 427.38885138 497.16166658 422.30530858 501.51953125 417.23046875 C504.86292298 413.33416469 508.18792482 409.42294783 511.5 405.5 C515.815252 400.38885138 520.16166658 395.30530858 524.51953125 390.23046875 C528.31769348 385.80418667 532.08960747 381.35640661 535.85107422 376.89892578 C539.25317557 372.87137528 542.68593583 368.87099984 546.125 364.875 C549.70626602 360.7131582 553.2315813 356.51730831 556.6875 352.25 C560.24267904 347.86848205 563.96769537 343.68289319 567.765625 339.51171875 C570.00134533 336.99848768 572.13377682 334.42688521 574.25 331.8125 C578.41084769 326.67305572 582.71734489 321.67673848 587.05932617 316.69091797 C590.59159995 312.63216743 594.09432856 308.55114718 597.5625 304.4375 C601.35414489 299.94017638 605.16728302 295.46238201 609 291 C612.85138938 286.5150648 616.686331 282.01705464 620.5 277.5 C624.815252 272.38885138 629.16166658 267.30530858 633.51953125 262.23046875 C636.86292298 258.33416469 640.18792482 254.42294783 643.5 250.5 C647.815252 245.38885138 652.16166658 240.30530858 656.51953125 235.23046875 C659.86292298 231.33416469 663.18792482 227.42294783 666.5 223.5 C670.815252 218.38885138 675.16166658 213.30530858 679.51953125 208.23046875 C682.86292298 204.33416469 686.18792482 200.42294783 689.5 196.5 C693.815252 191.38885138 698.16166658 186.30530858 702.51953125 181.23046875 C705.86292298 177.33416469 709.18792482 173.42294783 712.5 169.5 C716.815252 164.38885138 721.16166658 159.30530858 725.51953125 154.23046875 C728.86292298 150.33416469 732.18792482 146.42294783 735.5 142.5 C739.815252 137.38885138 744.16166658 132.30530858 748.51953125 127.23046875 C752.31769348 122.80418667 756.08960747 118.35640661 759.85107422 113.89892578 C763.25317557 109.87137528 766.68593583 105.87099984 770.125 101.875 C773.70626602 97.7131582 777.2315813 93.51730831 780.6875 89.25 C784.24267904 84.86848205 787.96769537 80.68289319 791.765625 76.51171875 C794.00134533 73.99848768 796.13377682 71.42688521 798.25 68.8125 C802.41084769 63.67305572 806.71734489 58.67673848 811.05932617 53.69091797 C814.59159995 49.63216743 818.09432856 45.55114718 821.5625 41.4375 C825.85170745 36.35001039 830.17303216 31.29126757 834.50878906 26.2434082 C838.81130858 21.23009234 843.07680628 16.18630448 847.33203125 11.1328125 C847.76532995 10.63948284 848.19862865 10.14615317 848.64505762 9.63787413 C850.06221813 7.98447519 850.06221813 7.98447519 851.33510643 5.97788286 C853.76033435 2.60506095 855.64403688 0.36341555 859.74281013 -0.73510838 C863.18172356 -1.01020776 866.54069987 -1.02767044 869.99021912 -0.96203613 C871.30293685 -0.96887153 872.61565457 -0.97570693 873.96815163 -0.98274946 C877.6015516 -1.00059951 881.23305741 -0.96869879 884.86621606 -0.92852497 C888.7877365 -0.89392811 892.70915293 -0.90567163 896.63078308 -0.91174316 C903.42171411 -0.91593499 910.21202953 -0.89086792 917.00280571 -0.84584045 C926.82097749 -0.78078172 936.63885206 -0.7599847 946.45721603 -0.74993652 C962.38725477 -0.73243399 978.3169655 -0.67921245 994.24682617 -0.60351562 C1009.71979126 -0.53006644 1025.19266722 -0.47344747 1040.66577148 -0.43945312 C1041.619771 -0.43735134 1042.57377053 -0.43524955 1043.55667912 -0.43308407 C1048.34268692 -0.42264366 1053.12869535 -0.41253402 1057.9147042 -0.40258884 C1097.61003244 -0.31967534 1137.30499456 -0.17878805 1177 0 C1175.38182825 3.40829937 1173.52234036 5.79530758 1170.9375 8.5625 C1167.70801662 12.08042208 1164.61539482 15.65182375 1161.625 19.375 C1157.94428153 23.92780507 1154.07351352 28.23417411 1150.08862305 32.5168457 C1146.28614986 36.62760957 1142.75736701 40.92266523 1139.24609375 45.28515625 C1136.11832821 49.06567286 1132.78726117 52.64480875 1129.46484375 56.25390625 C1127.07292703 58.91875166 1124.80745116 61.64831825 1122.5625 64.4375 C1118.90428985 68.97316443 1115.05257035 73.2570117 1111.08618164 77.51928711 C1108.09573 80.75193975 1105.26220993 84.06696766 1102.5 87.5 C1099.30068278 91.47629426 1095.97415055 95.26668298 1092.5 99 C1088.2104224 103.61001639 1084.19589103 108.37783236 1080.24609375 113.28515625 C1077.11832821 117.06567286 1073.78726117 120.64480875 1070.46484375 124.25390625 C1068.07292703 126.91875166 1065.80745116 129.64831825 1063.5625 132.4375 C1059.90428985 136.97316443 1056.05257035 141.2570117 1052.08618164 145.51928711 C1049.09573 148.75193975 1046.26220993 152.06696766 1043.5 155.5 C1040.30068278 159.47629426 1036.97415055 163.26668298 1033.5 167 C1029.2104224 171.61001639 1025.19589103 176.37783236 1021.24609375 181.28515625 C1018.11832821 185.06567286 1014.78726117 188.64480875 1011.46484375 192.25390625 C1009.07292703 194.91875166 1006.80745116 197.64831825 1004.5625 200.4375 C1000.90428985 204.97316443 997.05257035 209.2570117 993.08618164 213.51928711 C990.09573 216.75193975 987.26220993 220.06696766 984.5 223.5 C981.30068278 227.47629426 977.97415055 231.26668298 974.5 235 C970.2104224 239.61001639 966.19589103 244.37783236 962.24609375 249.28515625 C959.11832821 253.06567286 955.78726117 256.64480875 952.46484375 260.25390625 C950.07292703 262.91875166 947.80745116 265.64831825 945.5625 268.4375 C941.90428985 272.97316443 938.05257035 277.2570117 934.08618164 281.51928711 C931.09573 284.75193975 928.26220993 288.06696766 925.5 291.5 C921.86500611 296.01777813 918.0328971 300.27818516 914.0859375 304.51953125 C911.09558642 307.75211747 908.26213671 311.06705866 905.5 314.5 C902.30068278 318.47629426 898.97415055 322.26668298 895.5 326 C891.2104224 330.61001639 887.19589103 335.37783236 883.24609375 340.28515625 C880.11832821 344.06567286 876.78726117 347.64480875 873.46484375 351.25390625 C871.07292703 353.91875166 868.80745116 356.64831825 866.5625 359.4375 C862.90428985 363.97316443 859.05257035 368.2570117 855.08618164 372.51928711 C852.09573 375.75193975 849.26220993 379.06696766 846.5 382.5 C843.30068278 386.47629426 839.97415055 390.26668298 836.5 394 C832.2104224 398.61001639 828.19589103 403.37783236 824.24609375 408.28515625 C821.11832821 412.06567286 817.78726117 415.64480875 814.46484375 419.25390625 C812.07292703 421.91875166 809.80745116 424.64831825 807.5625 427.4375 C803.90428985 431.97316443 800.05257035 436.2570117 796.08618164 440.51928711 C793.09573 443.75193975 790.26220993 447.06696766 787.5 450.5 C784.30068278 454.47629426 780.97415055 458.26668298 777.5 462 C773.2104224 466.61001639 769.19589103 471.37783236 765.24609375 476.28515625 C762.11832821 480.06567286 758.78726117 483.64480875 755.46484375 487.25390625 C753.07292703 489.91875166 750.80745116 492.64831825 748.5625 495.4375 C744.90428985 499.97316443 741.05257035 504.2570117 737.08618164 508.51928711 C734.09573 511.75193975 731.26220993 515.06696766 728.5 518.5 C725.30068278 522.47629426 721.97415055 526.26668298 718.5 530 C714.2104224 534.61001639 710.19589103 539.37783236 706.24609375 544.28515625 C703.11832821 548.06567286 699.78726117 551.64480875 696.46484375 555.25390625 C694.07292703 557.91875166 691.80745116 560.64831825 689.5625 563.4375 C685.90428985 567.97316443 682.05257035 572.2570117 678.08618164 576.51928711 C675.09573 579.75193975 672.26220993 583.06696766 669.5 586.5 C665.86500611 591.01777813 662.0328971 595.27818516 658.0859375 599.51953125 C655.09558642 602.75211747 652.26213671 606.06705866 649.5 609.5 C646.30068278 613.47629426 642.97415055 617.26668298 639.5 621 C635.2104224 625.61001639 631.19589103 630.37783236 627.24609375 635.28515625 C624.11832821 639.06567286 620.78726117 642.64480875 617.46484375 646.25390625 C615.07292703 648.91875166 612.80745116 651.64831825 610.5625 654.4375 C606.90428985 658.97316443 603.05257035 663.2570117 599.08618164 667.51928711 C596.09573 670.75193975 593.26220993 674.06696766 590.5 677.5 C587.30068278 681.47629426 583.97415055 685.26668298 580.5 689 C576.2104224 693.61001639 572.19589103 698.37783236 568.24609375 703.28515625 C565.11832821 707.06567286 561.78726117 710.64480875 558.46484375 714.25390625 C556.07292703 716.91875166 553.80745116 719.64831825 551.5625 722.4375 C547.90428985 726.97316443 544.05257035 731.2570117 540.08618164 735.51928711 C537.09573 738.75193975 534.26220993 742.06696766 531.5 745.5 C528.30066548 749.47631576 524.97398272 753.26650482 521.5 757 C515.61835268 763.32655568 509.79905873 769.80141191 505 777 C505.36609375 777.41507813 505.7321875 777.83015625 506.109375 778.2578125 C509.00144441 781.54926292 511.87929609 784.85110141 514.71484375 788.19140625 C520.24763514 794.70258529 525.87717685 801.07939026 531.71411133 807.31958008 C534.7383702 810.57331665 537.60000498 813.90240919 540.375 817.375 C545.2064614 823.39669368 550.49211671 828.95437915 555.78125 834.5703125 C559.73316017 838.76808922 563.52345773 843.08290505 567.25439453 847.47753906 C568.7304594 849.21559391 570.20836838 850.95205423 571.6875 852.6875 C572.19982178 853.28868652 572.71214355 853.88987305 573.23999023 854.50927734 C577.2823296 859.22502614 581.47176965 863.78414842 585.71411133 868.31958008 C588.7383702 871.57331665 591.60000498 874.90240919 594.375 878.375 C598.60978848 883.65693617 603.19871525 888.53876878 607.84716797 893.45263672 C611.98587046 897.85049683 615.82731544 902.40290295 619.59375 907.125 C622.59742005 910.71380058 625.78474154 914.1012067 629 917.5 C633.77178383 922.54416896 638.26183993 927.69394856 642.59375 933.125 C645.59742005 936.71380058 648.78474154 940.1012067 652 943.5 C656.77178383 948.54416896 661.26183993 953.69394856 665.59375 959.125 C668.59742005 962.71380058 671.78474154 966.1012067 675 969.5 C678.99401455 973.72200269 682.87289241 977.95258153 686.5 982.5 C691.27996646 988.48838495 696.53219357 993.99684413 701.78125 999.5703125 C705.73316017 1003.76808922 709.52345773 1008.08290505 713.25439453 1012.47753906 C714.7304594 1014.21559391 716.20836838 1015.95205423 717.6875 1017.6875 C718.19982178 1018.28868652 718.71214355 1018.88987305 719.23999023 1019.50927734 C723.2823296 1024.22502614 727.47176965 1028.78414842 731.71411133 1033.31958008 C734.7383702 1036.57331665 737.60000498 1039.90240919 740.375 1043.375 C744.60978848 1048.65693617 749.19871525 1053.53876878 753.84716797 1058.45263672 C757.98587046 1062.85049683 761.82731544 1067.40290295 765.59375 1072.125 C768.59742005 1075.71380058 771.78474154 1079.1012067 775 1082.5 C779.77178383 1087.54416896 784.26183993 1092.69394856 788.59375 1098.125 C791.59742005 1101.71380058 794.78474154 1105.1012067 798 1108.5 C802.77178383 1113.54416896 807.26183993 1118.69394856 811.59375 1124.125 C814.59742005 1127.71380058 817.78474154 1131.1012067 821 1134.5 C824.99401455 1138.72200269 828.87289241 1142.95258153 832.5 1147.5 C837.27996646 1153.48838495 842.53219357 1158.99684413 847.78125 1164.5703125 C851.73316017 1168.76808922 855.52345773 1173.08290505 859.25439453 1177.47753906 C860.7304594 1179.21559391 862.20836838 1180.95205423 863.6875 1182.6875 C864.19982178 1183.28868652 864.71214355 1183.88987305 865.23999023 1184.50927734 C869.2823296 1189.22502614 873.47176965 1193.78414842 877.71411133 1198.31958008 C880.7383702 1201.57331665 883.60000498 1204.90240919 886.375 1208.375 C890.60978848 1213.65693617 895.19871525 1218.53876878 899.84716797 1223.45263672 C903.98587046 1227.85049683 907.82731544 1232.40290295 911.59375 1237.125 C914.59742005 1240.71380058 917.78474154 1244.1012067 921 1247.5 C925.77178383 1252.54416896 930.26183993 1257.69394856 934.59375 1263.125 C937.59742005 1266.71380058 940.78474154 1270.1012067 944 1273.5 C947.99401455 1277.72200269 951.87289241 1281.95258153 955.5 1286.5 C960.27996646 1292.48838495 965.53219357 1297.99684413 970.78125 1303.5703125 C974.73316017 1307.76808922 978.52345773 1312.08290505 982.25439453 1316.47753906 C983.7304594 1318.21559391 985.20836838 1319.95205423 986.6875 1321.6875 C987.19982178 1322.28868652 987.71214355 1322.88987305 988.23999023 1323.50927734 C992.2823296 1328.22502614 996.47176965 1332.78414842 1000.71411133 1337.31958008 C1003.7383702 1340.57331665 1006.60000498 1343.90240919 1009.375 1347.375 C1013.60978848 1352.65693617 1018.19871525 1357.53876878 1022.84716797 1362.45263672 C1026.98587046 1366.85049683 1030.82731544 1371.40290295 1034.59375 1376.125 C1037.59742005 1379.71380058 1040.78474154 1383.1012067 1044 1386.5 C1048.77178383 1391.54416896 1053.26183993 1396.69394856 1057.59375 1402.125 C1060.59742005 1405.71380058 1063.78474154 1409.1012067 1067 1412.5 C1071.77178383 1417.54416896 1076.26183993 1422.69394856 1080.59375 1428.125 C1083.59742005 1431.71380058 1086.78474154 1435.1012067 1090 1438.5 C1093.99401455 1442.72200269 1097.87289241 1446.95258153 1101.5 1451.5 C1106.27996646 1457.48838495 1111.53219357 1462.99684413 1116.78125 1468.5703125 C1120.73316017 1472.76808922 1124.52345773 1477.08290505 1128.25439453 1481.47753906 C1129.7304594 1483.21559391 1131.20836838 1484.95205423 1132.6875 1486.6875 C1133.19982178 1487.28868652 1133.71214355 1487.88987305 1134.23999023 1488.50927734 C1138.2823296 1493.22502614 1142.47176965 1497.78414842 1146.71411133 1502.31958008 C1149.7383702 1505.57331665 1152.60000498 1508.90240919 1155.375 1512.375 C1159.60358284 1517.64919605 1164.18436652 1522.52524655 1168.82739258 1527.43066406 C1173.1309846 1532.00194923 1177.15198055 1536.69618121 1181.03515625 1541.6328125 C1183.04146131 1544.13396956 1183.04146131 1544.13396956 1185.74609375 1546.6796875 C1188 1549 1188 1549 1188 1551 C1145.65491301 1551.32058868 1103.30996627 1551.5672076 1060.96390568 1551.71491461 C1055.96226326 1551.73242407 1050.96062323 1551.75054463 1045.95898438 1551.76904297 C1044.96326677 1551.77271531 1043.96754916 1551.77638766 1042.94165829 1551.78017129 C1026.82834257 1551.84105609 1010.71572758 1551.95142017 994.60282728 1552.08013915 C978.06395157 1552.21115708 961.52544232 1552.28884282 944.98606896 1552.31723893 C934.78355592 1552.3364299 924.58302351 1552.39698851 914.38112035 1552.51083054 C907.38096336 1552.58495558 900.38182703 1552.60717554 893.38130626 1552.58901928 C889.34413118 1552.58006816 885.31041043 1552.59357243 881.2738533 1552.66887665 C855.80554065 1553.12089314 855.80554065 1553.12089314 849.53131866 1547.95877457 C846.82870992 1545.14551064 844.82621913 1542.13366396 842.9873395 1538.70562196 C841.46213814 1536.07084745 839.416824 1533.99327791 837.3125 1531.8125 C834.28287132 1528.47772886 831.39391908 1525.06712361 828.5625 1521.5625 C824.70174863 1516.788597 820.62562925 1512.26611572 816.46875 1507.75 C813.27118704 1504.18815771 810.28611657 1500.47434167 807.28125 1496.75 C804.93281032 1493.91900422 802.49090098 1491.20616402 800 1488.5 C795.90648909 1484.05272888 792.07557501 1479.45282537 788.28125 1474.75 C785.93281032 1471.91900422 783.49090098 1469.20616402 781 1466.5 C776.90648909 1462.05272888 773.07557501 1457.45282537 769.28125 1452.75 C766.13805742 1448.96094593 762.79841405 1445.36730648 759.46484375 1441.74609375 C757.07292703 1439.08124834 754.80745116 1436.35168175 752.5625 1433.5625 C749.34056899 1429.56776014 745.99344505 1425.75445651 742.5 1422 C738.21044887 1417.38995664 734.19589328 1412.62217044 730.24609375 1407.71484375 C727.9116941 1404.89326505 725.48009402 1402.19409288 723 1399.5 C718.90648909 1395.05272888 715.07557501 1390.45282537 711.28125 1385.75 C708.93281032 1382.91900422 706.49090098 1380.20616402 704 1377.5 C699.90648909 1373.05272888 696.07557501 1368.45282537 692.28125 1363.75 C689.13805742 1359.96094593 685.79841405 1356.36730648 682.46484375 1352.74609375 C680.07292703 1350.08124834 677.80745116 1347.35168175 675.5625 1344.5625 C672.34056899 1340.56776014 668.99344505 1336.75445651 665.5 1333 C661.21044887 1328.38995664 657.19589328 1323.62217044 653.24609375 1318.71484375 C650.9116941 1315.89326505 648.48009402 1313.19409288 646 1310.5 C641.90648909 1306.05272888 638.07557501 1301.45282537 634.28125 1296.75 C631.93281032 1293.91900422 629.49090098 1291.20616402 627 1288.5 C622.90648909 1284.05272888 619.07557501 1279.45282537 615.28125 1274.75 C612.93281032 1271.91900422 610.49090098 1269.20616402 608 1266.5 C603.90648909 1262.05272888 600.07557501 1257.45282537 596.28125 1252.75 C593.13805742 1248.96094593 589.79841405 1245.36730648 586.46484375 1241.74609375 C584.07292703 1239.08124834 581.80745116 1236.35168175 579.5625 1233.5625 C576.34056899 1229.56776014 572.99344505 1225.75445651 569.5 1222 C565.21044887 1217.38995664 561.19589328 1212.62217044 557.24609375 1207.71484375 C554.9116941 1204.89326505 552.48009402 1202.19409288 550 1199.5 C545.90648909 1195.05272888 542.07557501 1190.45282537 538.28125 1185.75 C535.93281032 1182.91900422 533.49090098 1180.20616402 531 1177.5 C526.90648909 1173.05272888 523.07557501 1168.45282537 519.28125 1163.75 C516.13805742 1159.96094593 512.79841405 1156.36730648 509.46484375 1152.74609375 C507.07292703 1150.08124834 504.80745116 1147.35168175 502.5625 1144.5625 C499.34056899 1140.56776014 495.99344505 1136.75445651 492.5 1133 C488.21044887 1128.38995664 484.19589328 1123.62217044 480.24609375 1118.71484375 C477.9116941 1115.89326505 475.48009402 1113.19409288 473 1110.5 C468.90648909 1106.05272888 465.07557501 1101.45282537 461.28125 1096.75 C458.93281032 1093.91900422 456.49090098 1091.20616402 454 1088.5 C449.90648909 1084.05272888 446.07557501 1079.45282537 442.28125 1074.75 C439.93281032 1071.91900422 437.49090098 1069.20616402 435 1066.5 C430.90648909 1062.05272888 427.07557501 1057.45282537 423.28125 1052.75 C420.13805742 1048.96094593 416.79841405 1045.36730648 413.46484375 1041.74609375 C411.07292703 1039.08124834 408.80745116 1036.35168175 406.5625 1033.5625 C403.34056899 1029.56776014 399.99344505 1025.75445651 396.5 1022 C392.21044887 1017.38995664 388.19589328 1012.62217044 384.24609375 1007.71484375 C381.9116941 1004.89326505 379.48009402 1002.19409288 377 999.5 C372.90648909 995.05272888 369.07557501 990.45282537 365.28125 985.75 C362.93281032 982.91900422 360.49090098 980.20616402 358 977.5 C353.90648909 973.05272888 350.07557501 968.45282537 346.28125 963.75 C343.13805742 959.96094593 339.79841405 956.36730648 336.46484375 952.74609375 C334.07292703 950.08124834 331.80745116 947.35168175 329.5625 944.5625 C326.34056899 940.56776014 322.99344505 936.75445651 319.5 933 C315.21044887 928.38995664 311.19589328 923.62217044 307.24609375 918.71484375 C304.9116941 915.89326505 302.48009402 913.19409288 300 910.5 C295.90648909 906.05272888 292.07557501 901.45282537 288.28125 896.75 C285.93281032 893.91900422 283.49090098 891.20616402 281 888.5 C277.70668301 884.92207537 274.55348679 881.28460334 271.5 877.5 C266.86345767 871.83311493 261.92528388 866.41781227 257 861 C256.67 1088.7 256.34 1316.4 256 1551 C171.52 1551 87.04 1551 0 1551 C0 1039.17 0 527.34 0 0 Z " fill="#000000" transform="translate(2529,1063)"/>
<path d="M0 0 C1.03302246 0.49193848 2.06604492 0.98387695 3.13037109 1.49072266 C48.58726621 23.24971036 91.23997167 51.7628467 128.48828125 85.734375 C129.83640651 86.95041334 131.19037508 88.16079196 132.57739258 89.33227539 C139.11545415 94.89349511 145.12724486 100.97629321 151.18188477 107.05151367 C153.05829475 108.93328274 154.93998969 110.80964738 156.82226562 112.68554688 C162.76104598 118.62073781 168.59156319 124.57043542 174 131 C174.94855057 132.08375887 175.89903015 133.16583285 176.8515625 134.24609375 C193.41486766 153.23466617 208.37832157 173.81016146 222 195 C222.4734082 195.73428223 222.94681641 196.46856445 223.43457031 197.22509766 C268.02180731 266.78637529 296.02997352 345.00858757 318 564 C317.98066406 565.26070312 317.96132813 566.52140625 317.94140625 567.8203125 C317.3252192 601.96432414 315.71279939 637.43600307 309 671 C-0.87 671 -310.74 671 -630 671 C-621.11734616 744.2818942 -602.21112041 813.4616465 -554 871 C-553.54189941 871.55816406 -553.08379883 872.11632813 -552.61181641 872.69140625 C-545.63282168 881.17725635 -538.11665047 889.08201232 -530.375 896.875 C-529.51664551 897.74261963 -528.65829102 898.61023926 -527.77392578 899.50415039 C-521.82345982 905.42570858 -515.55383271 910.76194632 -509 916 C-507.68276471 917.09614784 -506.36857663 918.19597641 -505.05859375 919.30078125 C-495.4987971 927.28695416 -485.51950308 934.33619307 -475 941 C-474.06752441 941.59458008 -474.06752441 941.59458008 -473.11621094 942.20117188 C-415.33434882 978.77839013 -348.39816553 994.53526465 -280.5 994.3125 C-279.36824341 994.31100952 -278.23648682 994.30951904 -277.07043457 994.3079834 C-258.86473164 994.26504693 -241.04293421 993.5404101 -223 991 C-221.44369873 990.79117188 -221.44369873 990.79117188 -219.85595703 990.578125 C-186.98951935 986.06284401 -154.8077555 976.58203321 -125 962 C-123.83210938 961.43442383 -123.83210938 961.43442383 -122.640625 960.85742188 C-100.96407358 950.25242031 -80.99189041 936.38452113 -63.23828125 920.0546875 C-61.12960473 918.11897397 -58.98213672 916.24180024 -56.8125 914.375 C-50.33993202 908.72125086 -44.53107469 902.57006109 -39 896 C-38.55414551 895.47325684 -38.10829102 894.94651367 -37.64892578 894.40380859 C-19.24686645 872.56154794 -5.3463324 849.20973897 8 824 C99.08 824 190.16 824 284 824 C282.70497519 829.82761165 281.54095047 834.69452886 279.48828125 840.15625 C279.2435759 840.80835953 278.99887054 841.46046906 278.74674988 842.13233948 C277.9440873 844.25834662 277.12985943 846.3796025 276.3125 848.5 C276.02955078 849.23765594 275.74660156 849.97531189 275.45507812 850.73532104 C251.29665649 913.49290792 216.65206923 970.72810512 172 1021 C171.38511719 1021.69609375 170.77023437 1022.3921875 170.13671875 1023.109375 C159.43766289 1035.11810813 148.56867069 1046.93110117 136.53466797 1057.61816406 C134.23771364 1059.68637302 131.99413799 1061.81022308 129.7434082 1063.9284668 C124.32328826 1069.02031667 118.82686357 1073.92692709 113.015625 1078.57421875 C110.71075493 1080.42826579 108.43555735 1082.30378311 106.171875 1084.20703125 C96.80921996 1092.05812776 87.19657505 1099.39579369 77.20996094 1106.43408203 C75.05739073 1107.9593345 72.92152846 1109.50539616 70.7890625 1111.05859375 C60.23311214 1118.70435132 49.26100487 1125.44814262 38 1132 C37.15953125 1132.495 36.3190625 1132.99 35.453125 1133.5 C-35.68883285 1175.399558 -115.98384939 1197.73879296 -197.66851807 1206.74285889 C-199.18667967 1206.91029821 -200.7045623 1207.08029305 -202.22210693 1207.25323486 C-252.19200758 1212.92650824 -305.90285331 1213.21371242 -355.85992432 1207.25323486 C-358.12350167 1206.98538606 -360.38839006 1206.73175859 -362.65380859 1206.47998047 C-431.91774862 1198.70000327 -499.10857475 1180.17646085 -562 1150 C-562.98129883 1149.53126465 -563.96259766 1149.0625293 -564.97363281 1148.57958984 C-580.44788386 1141.14440092 -595.28968326 1132.84081159 -610 1124 C-610.83821289 1123.50081055 -611.67642578 1123.00162109 -612.54003906 1122.48730469 C-635.35287678 1108.89963399 -656.8285535 1093.35818115 -677.27197266 1076.42382812 C-678.8308644 1075.13936123 -680.40480439 1073.87321063 -681.98046875 1072.609375 C-688.71417647 1067.20686202 -695.04166105 1061.44561833 -701.33837891 1055.54833984 C-702.98071904 1054.01796648 -704.63435883 1052.50099264 -706.29296875 1050.98828125 C-715.65315353 1042.44390518 -724.94453145 1033.77732071 -733.16796875 1024.11328125 C-735.04890907 1021.94358251 -736.98914739 1019.8353431 -738.94287109 1017.73120117 C-744.55410247 1011.68281795 -749.84341679 1005.44359819 -755 999 C-755.92240375 997.86916043 -756.84562196 996.73898485 -757.76953125 995.609375 C-818.06501776 921.56984339 -858.45094381 832.06002665 -890.73657227 484.14575195 C-883.00937616 411.02648385 -865.10171888 338.76421954 -834 272 C-833.50886719 270.93942383 -833.01773438 269.87884766 -832.51171875 268.78613281 C-812.49394199 225.72678585 -787.75950317 184.31254622 -757 148 C-756.10765282 146.93394525 -755.21574952 145.86751885 -754.32421875 144.80078125 C-749.42064212 138.95076573 -744.4445506 133.18108681 -739.30249023 127.53808594 C-737.85736802 125.94509574 -736.41965419 124.34531967 -734.99291992 122.73583984 C-729.63854839 116.70421812 -724.0765222 110.92056987 -718.36108398 105.23071289 C-716.93160283 103.80662508 -715.50759489 102.37721956 -714.08398438 100.94726562 C-708.88331019 95.75382967 -703.58921817 90.7701537 -698 86 C-696.84313797 84.97872665 -695.68815373 83.95532185 -694.53515625 82.9296875 C-686.01770665 75.41371746 -677.21042487 68.39773864 -668.11865234 61.59082031 C-666.03570709 60.02681118 -663.96390459 58.44909523 -661.89453125 56.8671875 C-653.15580505 50.2089593 -644.22961157 43.95682668 -635 38 C-634.29568848 37.54157715 -633.59137695 37.0831543 -632.86572266 36.61083984 C-619.88657903 28.17967488 -606.55587435 20.46304521 -593 13 C-592.21753906 12.56478027 -591.43507812 12.12956055 -590.62890625 11.68115234 C-519.08212794 -27.97449829 -436.49322133 -49.30624159 -344 -58 C-342.69627441 -58.10441406 -341.39254883 -58.20882813 -340.04931641 -58.31640625 C-253.80241145 -64.98972949 -164.11443527 -58.05375472 0 0 Z M-440 187 C-440.97291992 187.47421387 -441.94583984 187.94842773 -442.94824219 188.43701172 C-466.95402685 200.24369204 -488.4990793 214.85579297 -509 232 C-509.51224121 232.42055664 -510.02448242 232.84111328 -510.55224609 233.27441406 C-524.10489003 244.40650418 -537.21373427 256.60269784 -548.015625 270.4609375 C-550.17382706 273.22241651 -552.45723003 275.84944108 -554.75 278.5 C-569.67417445 296.42749129 -582.08938291 317.03212385 -592.07763672 338.07861328 C-592.98613889 339.97112576 -593.9281329 341.84326974 -594.87890625 343.71484375 C-608.67270188 371.3059431 -617.23142047 401.58034532 -623.375 431.6875 C-623.61387939 432.85539062 -623.85275879 434.02328125 -624.09887695 435.2265625 C-625.96640025 444.84062382 -626.90831174 454.17480568 -628 464 C-403.93 464 -179.86 464 51 464 C51 381.91051659 20.48455621 308.75331571 -37.0625 250.75 C-43.76978648 244.05870815 -50.41447379 237.68914466 -58 232 C-59.47975113 230.85492155 -60.95885355 229.70900457 -62.4375 228.5625 C-73.5545487 220.01252266 -84.96393724 212.19588059 -97 205 C-97.65323242 204.60651367 -98.30646484 204.21302734 -98.97949219 203.80761719 C-147.06208505 175.07745953 -202.3854538 160.10014834 -258 156 C-258.75313477 155.94215332 -259.50626953 155.88430664 -260.28222656 155.82470703 C-321.47701286 151.30021318 -384.56442047 159.81623212 -440 187 Z " fill="#000000" transform="translate(5682,1424)"/>
<path d="M0 0 C0.7271521 0.06316406 1.4543042 0.12632813 2.20349121 0.19140625 C78.56281141 6.93300271 152.79224469 25.77292531 259 79 C260.69789262 79.98441647 262.39580884 80.96879224 264.09375 81.953125 C292.71104544 98.69133184 320.21726559 118.36636738 344.62890625 140.83984375 C346.6668412 142.69647971 348.72944369 144.51420619 350.80859375 146.32421875 C363.62315663 157.51593121 375.48900758 169.48175552 387 182 C387.96970931 183.04458914 388.93972719 184.08889198 389.91015625 185.1328125 C395.52526749 191.22525159 400.85443658 197.50750968 406 204 C406.76570313 204.96486328 406.76570313 204.96486328 407.546875 205.94921875 C426.94686655 230.47117068 444.40532353 256.04845387 459.56884766 283.42285156 C461.01498551 286.02698516 462.48120967 288.61908216 463.94921875 291.2109375 C503.9694076 362.47007186 525.74822576 444.02247741 534.75 536.5 C534.83888489 537.52772018 534.83888489 537.52772018 534.92956543 538.57620239 C536.7788153 560.37352576 537.20674261 582.12966026 537.1875 604 C537.18723312 604.68127583 537.18696625 605.36255165 537.18669128 606.0644722 C537.17226445 635.46608418 535.98118083 664.49354929 533.0625 693.75 C532.98318237 694.55025604 532.90386475 695.35051208 532.82214355 696.17501831 C532.5889616 698.48742601 532.34535378 700.79848088 532.09765625 703.109375 C531.88894897 705.07342285 531.88894897 705.07342285 531.67602539 707.07714844 C530.66796525 714.41789406 529.28768637 721.70311057 528 729 C218.13 729 -91.74 729 -411 729 C-400.40189191 807.42599989 -379.93047313 879.13059577 -326 939 C-325.23792236 939.84667236 -325.23792236 939.84667236 -324.46044922 940.71044922 C-315.77367266 950.31735441 -306.87335995 959.5982327 -297 968 C-296.10152344 968.78761719 -295.20304687 969.57523438 -294.27734375 970.38671875 C-267.49962175 993.69873038 -236.74284776 1012.35231173 -204 1026 C-203.18805176 1026.3398291 -202.37610352 1026.6796582 -201.53955078 1027.02978516 C-169.23767709 1040.36507003 -134.71947997 1047.74205982 -100 1051 C-99.10023437 1051.0942627 -98.20046875 1051.18852539 -97.2734375 1051.28564453 C-85.59040451 1052.37266441 -73.84805112 1052.24386788 -62.125 1052.25 C-60.96660614 1052.25067474 -59.80821228 1052.25134949 -58.61471558 1052.25204468 C-40.22329557 1052.23505543 -22.2286374 1051.62401468 -4 1049 C-2.81116211 1048.83371094 -1.62232422 1048.66742187 -0.39746094 1048.49609375 C26.96173416 1044.54900175 53.43797071 1037.525819 79 1027 C79.81887695 1026.66500488 80.63775391 1026.33000977 81.48144531 1025.98486328 C104.84132641 1016.31654826 126.40973639 1002.9505093 146 987 C146.54011719 986.56284668 147.08023438 986.12569336 147.63671875 985.67529297 C161.71921101 974.19018346 174.90118265 961.40565677 186 947 C187.05013891 945.698949 188.1024015 944.39961057 189.15625 943.1015625 C203.68530341 925.04752778 215.18578504 905.46472948 225.9152832 884.9675293 C227 883 227 883 228 882 C229.4752145 881.90325908 230.95505915 881.87628231 232.43344212 881.87695217 C233.87855446 881.8739656 233.87855446 881.8739656 235.35286099 881.87091869 C236.42384988 881.87383153 237.49483876 881.87674437 238.59828186 881.87974548 C239.72619674 881.87889106 240.85411161 881.87803663 242.01620573 881.87715632 C245.82730719 881.87549823 249.63836543 881.88102825 253.44946289 881.88647461 C256.16878793 881.887312 258.88811209 881.88664296 261.60743713 881.8860321 C267.47823097 881.88550667 273.34901372 881.88865548 279.21980476 881.89426994 C287.70807821 881.90238234 296.19634627 881.9049999 304.68462317 881.90625793 C318.45487227 881.90844886 332.22511545 881.91511006 345.99536133 881.92456055 C359.37524384 881.93373361 372.75512475 881.94081496 386.13500977 881.94506836 C387.37123185 881.94546244 387.37123185 881.94546244 388.63242812 881.94586449 C392.76676114 881.94716949 396.90109417 881.94843321 401.03542721 881.94967639 C435.35695573 881.96005028 469.67847723 881.97766971 504 882 C502.89941176 885.33436105 501.79488463 888.66740494 500.68969727 892.00024414 C500.22704342 893.4021487 500.22704342 893.4021487 499.75504303 894.83237457 C497.10132955 902.82451558 494.1459886 910.65028181 490.9375 918.4375 C490.52988937 919.43375397 490.52988937 919.43375397 490.11404419 920.45013428 C468.53118718 973.09605981 439.76284454 1022.79456729 402.55859375 1066.00390625 C400.08675417 1068.89841153 397.69461933 1071.84401283 395.3125 1074.8125 C392.11831705 1078.74117422 388.78945732 1082.37089272 385.1171875 1085.85546875 C383.26766941 1087.7288736 381.5628737 1089.64596061 379.84765625 1091.640625 C375.63097302 1096.49597874 371.11891875 1101.02779572 366.5625 1105.5625 C365.35110352 1106.77969727 365.35110352 1106.77969727 364.11523438 1108.02148438 C359.80639585 1112.32337876 355.42342692 1116.46845499 350.80688477 1120.43823242 C348.20547818 1122.6867391 345.703572 1125.03135811 343.1875 1127.375 C337.6433473 1132.49005227 331.89020796 1137.28627538 326 1142 C324.86916043 1142.92240375 323.73898485 1143.84562196 322.609375 1144.76953125 C301.11928251 1162.2691048 278.06275837 1178.24337866 254 1192 C253.36626465 1192.36689941 252.7325293 1192.73379883 252.07958984 1193.11181641 C182.73549258 1233.14465172 105.13003952 1255.46906387 -38.5703125 1268.203125 C-39.37761684 1268.20595238 -40.18492119 1268.20877975 -41.0166893 1268.21169281 C-45.30865532 1268.2265542 -49.60058901 1268.23585967 -53.89257812 1268.24023438 C-57.34158196 1268.2445684 -60.79032847 1268.25827972 -64.23925781 1268.28125 C-83.18346101 1268.40466575 -101.99732868 1268.11421812 -120.890625 1266.625 C-121.67491001 1266.56331886 -122.45919502 1266.50163773 -123.26724625 1266.43808746 C-203.86838998 1259.94841002 -281.25909313 1238.38740026 -461 1132 C-461.91023926 1131.23840576 -461.91023926 1131.23840576 -462.83886719 1130.46142578 C-464.6269399 1128.959464 -466.40884456 1127.4505984 -468.1875 1125.9375 C-468.68483643 1125.51581543 -469.18217285 1125.09413086 -469.69458008 1124.65966797 C-480.58111571 1115.30461923 -490.85855758 1105.30606456 -500.98632812 1095.14404297 C-502.89078505 1093.23417006 -504.80060819 1091.32977851 -506.7109375 1089.42578125 C-512.68506802 1083.45523862 -518.57781044 1077.48450387 -524 1071 C-524.90026853 1069.95506257 -525.80128029 1068.91076489 -526.703125 1067.8671875 C-533.34252875 1060.06690641 -539.78178476 1052.14046903 -546 1044 C-546.51369141 1043.3282373 -547.02738281 1042.65647461 -547.55664062 1041.96435547 C-567.58187531 1015.62523935 -585.0398996 987.66876249 -600.64648438 958.51464844 C-601.84708074 956.28410325 -603.06660833 954.06582552 -604.296875 951.8515625 C-642.42134797 882.62849861 -662.33958439 802.04366839 -675.203125 654.25390625 C-675.21010684 652.60266597 -675.21714778 650.95142595 -675.22424316 649.30018616 C-675.24350777 644.05428733 -675.2484189 638.80843035 -675.25 633.5625 C-675.25088371 632.22245533 -675.25088371 632.22245533 -675.25178528 630.85533905 C-675.26418741 604.21325082 -675.00321532 577.71252149 -672.22784424 551.18829346 C-671.99781012 548.97896764 -671.77882163 546.76876509 -671.56201172 544.55810547 C-663.8297727 466.63360144 -643.76293182 390.71965448 -610 320 C-609.29472168 318.52152588 -609.29472168 318.52152588 -608.57519531 317.01318359 C-601.14123328 301.54379814 -592.83825676 286.70606574 -584 272 C-583.50081055 271.16178711 -583.00162109 270.32357422 -582.48730469 269.45996094 C-576.06435532 258.67623612 -569.25441349 248.24152493 -562 238 C-561.49210937 237.278125 -560.98421875 236.55625 -560.4609375 235.8125 C-552.72898026 224.84302372 -544.60058289 214.30050774 -536 204 C-535.51789062 203.41879395 -535.03578125 202.83758789 -534.5390625 202.23876953 C-528.3747531 194.81222412 -522.00204359 187.61280557 -515.43115234 180.54443359 C-513.93298104 178.92767623 -512.44416059 177.30269792 -510.95703125 175.67578125 C-503.40022871 167.41916401 -495.79563596 159.29618608 -487.28515625 152.00390625 C-484.93568637 149.94360189 -482.65049184 147.82627581 -480.36743164 145.69311523 C-474.11386059 139.85578246 -467.71792824 134.30362755 -461 129 C-460.3596582 128.49243164 -459.71931641 127.98486328 -459.05957031 127.46191406 C-441.0418054 113.20582571 -422.56866777 100.05149843 -403 88 C-402.1239209 87.45875488 -401.2478418 86.91750977 -400.34521484 86.35986328 C-384.6666204 76.73019061 -368.43815292 68.2399215 -352 60 C-351.10684082 59.55140625 -350.21368164 59.1028125 -349.29345703 58.640625 C-279.50259136 23.86515624 -201.32935542 6.37966126 -124 0 C-123.28614136 -0.05951843 -122.57228271 -0.11903687 -121.83679199 -0.18035889 C-81.48162927 -3.49368382 -40.34193837 -3.5106333 0 0 Z M-317.15625 315.21484375 C-335.98024141 335.04118742 -351.6303215 357.20591097 -365 381 C-365.44972168 381.79486816 -365.89944336 382.58973633 -366.36279297 383.40869141 C-388.12183565 422.18938581 -409 476.40028502 -409 522 C-184.93 522 39.14 522 270 522 C270.02853217 502.7676309 270.02853217 502.7676309 268.375 483.8125 C268.28730347 483.12098846 268.19960693 482.42947693 268.10925293 481.7170105 C263.40161199 444.86929711 252.44267924 409.78837641 235 377 C234.53110352 376.11803955 234.53110352 376.11803955 234.05273438 375.21826172 C224.12646012 356.76833892 211.51039985 339.79432665 197.2734375 324.45703125 C195.25815584 322.27900347 193.30727564 320.06390714 191.375 317.8125 C185.42074345 310.97974658 178.88535365 304.87659655 172 299 C170.63294922 297.79923828 170.63294922 297.79923828 169.23828125 296.57421875 C160.26962002 288.75782643 150.7486471 281.80795748 141 275 C140.34741211 274.54206055 139.69482422 274.08412109 139.02246094 273.61230469 C129.07942837 266.67446174 118.71053619 260.67169396 108 255 C107.01676758 254.47841309 107.01676758 254.47841309 106.01367188 253.94628906 C61.38664387 230.48849229 12.19103268 217.66822865 -38 214 C-38.72348633 213.94360352 -39.44697266 213.88720703 -40.19238281 213.82910156 C-140.11595468 206.30030814 -233.16120562 236.99870737 -317.15625 315.21484375 Z " fill="#000000" transform="translate(4220,1366)"/>
<path d="M0 0 C1.02596283 0.00060425 2.05192566 0.0012085 3.10897827 0.00183105 C93.77630678 0.14581852 181.02087686 19.64333174 302.4375 85.1875 C302.97745605 85.56438965 303.51741211 85.9412793 304.07373047 86.32958984 C321.09495455 98.23438631 337.13588686 111.1372383 352.4375 125.1875 C353.00227051 125.70183594 353.56704102 126.21617188 354.14892578 126.74609375 C362.69813366 134.54142307 370.75509083 142.53570166 378.4375 151.1875 C379.19289062 152.00476562 379.94828125 152.82203125 380.7265625 153.6640625 C386.55962363 159.99180019 391.85974167 166.66638909 397.10839844 173.47753906 C398.29691663 175.00663191 399.51016253 176.51643003 400.7265625 178.0234375 C415.8423486 196.98310048 428.6931141 218.0232914 440.4375 239.1875 C440.92798828 240.07066895 441.41847656 240.95383789 441.92382812 241.86376953 C486.98181882 323.74977098 504.52863603 420.74555209 504.55976619 522.08180366 C504.55628776 525.97135067 504.55871109 529.86089513 504.56034368 533.75044274 C504.56240448 540.5485639 504.56079595 547.34667625 504.55670547 554.14479637 C504.55064022 564.25316101 504.55037246 574.36152015 504.55124746 584.46988628 C504.55255778 601.47839744 504.54923361 618.4869047 504.54323006 635.49541473 C504.53730463 652.3258847 504.53346242 669.15635304 504.53237724 685.98682404 C504.5323085 687.03491376 504.53223976 688.08300347 504.53216894 689.16285349 C504.53183059 694.48598831 504.53152921 699.80912314 504.53124207 705.13225797 C504.52914397 742.79536709 504.52241308 780.4584741 504.51293945 818.12158203 C504.50374897 854.70133452 504.49666832 891.28108643 504.49243164 927.86083984 C504.49230011 928.98920965 504.49216859 930.11757945 504.49203308 931.28014227 C504.49071451 942.61212362 504.4894387 953.94410496 504.48819422 965.27608631 C504.48565829 988.35880123 504.48283703 1011.4415161 504.47984314 1034.52423096 C504.47970585 1035.58544027 504.47956856 1036.64664959 504.47942711 1037.74001676 C504.47520564 1070.25463627 504.46977533 1102.76925541 504.46315002 1135.28387451 C504.46286869 1136.66804183 504.46286869 1136.66804183 504.46258167 1138.08017213 C504.45496792 1175.44928158 504.44607295 1212.81839075 504.4375 1250.1875 C420.9475 1250.1875 337.4575 1250.1875 251.4375 1250.1875 C251.41768066 1228.77601074 251.39786133 1207.36452148 251.37744141 1185.30419922 C251.36391461 1171.00324485 251.35035453 1156.70229056 251.33633423 1142.40133667 C251.33499943 1141.03833744 251.33499943 1141.03833744 251.33363767 1139.64780287 C251.30362593 1109.03791432 251.270911 1078.42802929 251.23617554 1047.81814575 C251.2344751 1046.31875862 251.2344751 1046.31875862 251.23274031 1044.78908085 C251.20808449 1023.0612812 251.18299141 1001.33348207 251.15744839 979.60568344 C251.14492337 968.94919921 251.1324949 958.29271487 251.12011719 947.63623047 C251.11888386 946.57582524 251.11765054 945.51542002 251.11637984 944.4228813 C251.07650433 910.09929051 251.04299465 875.77569712 251.01281309 841.45209656 C250.98174404 806.15767036 250.94419898 770.86325677 250.89859388 735.56884622 C250.8921442 730.57503295 250.88576797 725.58121958 250.87943649 720.58740616 C250.87818819 719.60462571 250.87693988 718.62184525 250.87565375 717.60928358 C250.85580957 701.83780224 250.8427207 686.06632231 250.83220672 670.29483231 C250.8214711 654.40975917 250.80350279 638.5247069 250.77833296 622.63964997 C250.76362424 613.22113947 250.75427952 603.80266088 250.75293317 594.38413879 C250.75148018 588.06772004 250.74270686 581.75133698 250.72834408 575.43493452 C250.72039548 571.85187945 250.71528229 568.26889421 250.71922119 564.68583082 C250.73503686 540.54602327 249.91860632 516.38165825 246.625 492.4375 C246.45395752 491.16422852 246.28291504 489.89095703 246.10668945 488.57910156 C240.82401692 450.49835585 231.43672102 412.8148073 214.4375 378.1875 C213.98503906 377.26340332 213.53257813 376.33930664 213.06640625 375.38720703 C203.98745266 357.02939064 193.37680097 340.06933752 180.4375 324.1875 C179.9950293 323.64206543 179.55255859 323.09663086 179.09667969 322.53466797 C167.87958252 308.81566012 155.50325702 295.99786347 141.4375 285.1875 C140.45910156 284.40375 139.48070313 283.62 138.47265625 282.8125 C95.65918524 248.73072374 44.05048255 232.28344017 -9.5625 225.1875 C-10.56587402 225.05327637 -11.56924805 224.91905273 -12.60302734 224.78076172 C-94.69061002 214.42697934 -184.19220729 231.69313426 -250.5625 282.375 C-255.31620676 286.10621135 -259.8565658 290.01583033 -264.30078125 294.109375 C-266.35276416 295.99478935 -268.44401954 297.81520033 -270.5625 299.625 C-279.10556042 307.10232653 -286.53662838 315.28806261 -293.5625 324.1875 C-294.44707582 325.28193015 -295.3325254 326.37565453 -296.21875 327.46875 C-334.20216694 374.62242985 -353.22510897 433.81899299 -360.8125 493.25 C-361.03909302 495.00002319 -361.03909302 495.00002319 -361.27026367 496.78540039 C-364.04234506 519.99865048 -364.86761751 543.2510095 -364.84197159 566.60993508 C-364.8402269 570.27024042 -364.85019884 573.93052005 -364.85852563 577.59081382 C-364.87150529 583.97246442 -364.87737471 590.35408881 -364.87828636 596.73575211 C-364.87967562 606.22470205 -364.89253753 615.71361357 -364.9075741 625.20255048 C-364.93256492 641.1727525 -364.94851359 657.1429512 -364.95915604 673.11316872 C-364.96971057 688.90629597 -364.98437782 704.69941076 -365.00443649 720.49252892 C-365.00568536 721.47761437 -365.00693423 722.46269983 -365.00822094 723.47763636 C-365.01458544 728.48118862 -365.02102244 733.48474077 -365.02748732 738.4882929 C-365.07304712 773.85034307 -365.10953863 809.21239728 -365.140625 844.57446289 C-365.17082996 878.9100809 -365.20518743 913.24569069 -365.24511719 947.58129883 C-365.24634819 948.64125238 -365.24757919 949.70120593 -365.2488475 950.79327928 C-365.26121526 961.43859115 -365.2736669 972.08390291 -365.28617998 982.7292146 C-365.31166451 1004.41141005 -365.33658944 1026.09360613 -365.36117554 1047.77580261 C-365.36230645 1048.77252932 -365.36343736 1049.76925602 -365.36460253 1050.79618657 C-365.39920916 1081.32268431 -365.43144588 1111.84918392 -365.46133423 1142.37568665 C-365.46260748 1143.67470538 -365.46260748 1143.67470538 -365.46390645 1144.99996691 C-365.4982374 1180.06247656 -365.53005266 1215.12498857 -365.5625 1250.1875 C-449.7125 1250.1875 -533.8625 1250.1875 -620.5625 1250.1875 C-620.5625 844.2875 -620.5625 438.3875 -620.5625 20.1875 C-536.4125 20.1875 -452.2625 20.1875 -365.5625 20.1875 C-365.2325 65.7275 -364.9025 111.2675 -364.5625 158.1875 C-360.6025 153.5675 -356.6425 148.9475 -352.5625 144.1875 C-350.28160026 141.74953187 -348.01768935 139.35850701 -345.65234375 137.01171875 C-345.07392227 136.43138382 -344.49550079 135.85104889 -343.89955139 135.25312805 C-342.7016753 134.05391731 -341.5013777 132.85712016 -340.29858398 131.6628418 C-338.49028392 129.86534195 -336.69304023 128.05727684 -334.89648438 126.24804688 C-328.09093286 119.43435913 -321.13163966 113.15284657 -313.5625 107.1875 C-312.26821824 106.1153885 -310.97745501 105.03900488 -309.69140625 103.95703125 C-236.21953874 42.78294281 -140.20312332 10.01638355 0 0 Z " fill="#000000" transform="translate(6735.5625,1363.8125)"/>
<path d="M0 0 C40.29495899 15.22254006 79.33750935 35.12070777 116.25390625 57.20703125 C117.2608252 57.80870117 118.26774414 58.41037109 119.30517578 59.03027344 C130.53523476 65.75858895 141.67231049 72.58673483 152.47363281 79.98730469 C154.34163353 81.26713623 156.21552114 82.5380419 158.08984375 83.80859375 C188.07747994 104.20537261 217.05961471 126.41349239 243.7890625 150.95703125 C245.83506579 152.82469828 247.90407782 154.65072722 250.00390625 156.45703125 C261.88428742 166.85530546 273.08423783 177.93337967 284.25390625 189.08203125 C284.8917807 189.7173175 285.52965515 190.35260376 286.18685913 191.00714111 C298.55146784 203.33222471 298.55146784 203.33222471 303.82128906 209.52929688 C306.16689195 212.2762265 308.65826392 214.88553723 311.12890625 217.51953125 C315.59217332 222.31698753 319.82365054 227.23865498 323.92578125 232.3515625 C326.0681066 234.9791461 328.26544376 237.54118643 330.49267578 240.09619141 C337.26936675 247.88008038 343.54646687 255.98658326 349.75488281 264.22753906 C351.10423233 266.00938367 352.46659907 267.77951247 353.83984375 269.54296875 C380.32336283 303.5687198 403.74654098 340.40800449 423.84423828 378.5390625 C425.13269327 380.97762088 426.4374991 383.40635663 427.75 385.83203125 C464.5865856 454.25788993 490.6481917 528.54411679 521.00390625 707.83203125 C521.09279114 708.91753265 521.09279114 708.91753265 521.18347168 710.02496338 C524.56482722 752.09641174 523.25390625 793.85910818 523.25390625 836.20703125 C176.09390625 836.20703125 -171.06609375 836.20703125 -528.74609375 836.20703125 C-528.74609375 736.49903506 -528.74609375 736.49903506 -525.74609375 703.20703125 C-525.65888062 702.23815979 -525.57166748 701.26928833 -525.48181152 700.27105713 C-523.11257458 674.3716908 -519.6295855 648.74921692 -514.74609375 623.20703125 C-514.5369635 622.10488281 -514.5369635 622.10488281 -514.3236084 620.98046875 C-509.28364226 594.42873113 -503.60492683 568.08572879 -495.74609375 542.20703125 C-495.55122375 541.56292297 -495.35635376 540.9188147 -495.15557861 540.25518799 C-476.07779498 477.26534077 -450.98665883 416.11348895 -417.74609375 359.20703125 C-417.21806152 358.29550293 -416.6900293 357.38397461 -416.14599609 356.44482422 C-404.79692282 336.86068958 -392.79260736 317.70762152 -379.74609375 299.20703125 C-379.34503418 298.63645996 -378.94397461 298.06588867 -378.53076172 297.47802734 C-375.63419727 293.36459806 -372.69831659 289.28064899 -369.74609375 285.20703125 C-369.22144531 284.48112793 -368.69679688 283.75522461 -368.15625 283.00732422 C-360.46415481 272.3862817 -352.53423309 262.03086362 -344.16992188 251.93066406 C-342.15768902 249.4947306 -340.17301625 247.0366065 -338.18359375 244.58203125 C-330.1336542 234.76610861 -321.83037145 225.20181277 -313.20703125 215.88671875 C-311.11505521 213.60878928 -309.07481941 211.30169186 -307.05859375 208.95703125 C-304.09093733 205.52899854 -300.91676795 202.3599343 -297.6875 199.1796875 C-295.92820136 197.39207017 -294.30099839 195.55976999 -292.68359375 193.64453125 C-285.0217067 184.74685597 -276.46870626 176.31619214 -267.5 168.7421875 C-265.48775893 166.98091637 -263.62237389 165.11223286 -261.74609375 163.20703125 C-258.57493345 159.99268394 -255.29026622 156.98952162 -251.8671875 154.046875 C-249.52118317 152.01194306 -247.22872925 149.92412158 -244.93359375 147.83203125 C-240.61483718 143.93461678 -236.16847324 140.2340277 -231.64453125 136.578125 C-229.11658998 134.51011914 -226.63178378 132.40039001 -224.1574707 130.26879883 C-217.53275637 124.5747208 -210.65729809 119.29674088 -203.63671875 114.1015625 C-200.21139833 111.56598994 -196.85096937 108.96001715 -193.49609375 106.33203125 C-171.73020791 89.44978049 -148.32004001 74.41575317 -124.74609375 60.20703125 C-123.84117187 59.66111328 -122.93625 59.11519531 -122.00390625 58.55273438 C-85.94266797 36.91094081 -48.32207187 18.52272564 -9.56863403 2.24995422 C-2.49915498 -0.72166211 -2.49915498 -0.72166211 0 0 Z M-224.02246094 306.95507812 C-224.5894873 307.77588867 -224.5894873 307.77588867 -225.16796875 308.61328125 C-227.50358114 311.88802628 -230.01763106 314.95054874 -232.62109375 318.01953125 C-235.11012721 321.08933919 -237.51128709 324.21436028 -239.87939453 327.37768555 C-240.41702423 328.09554733 -240.95465393 328.81340912 -241.50857544 329.55302429 C-242.121147 330.37175774 -242.121147 330.37175774 -242.74609375 331.20703125 C-216.73855009 330.57555353 -190.74123638 329.75909205 -164.74300146 328.82282078 C-159.60392706 328.63815609 -154.46477747 328.45560443 -149.32563782 328.27276611 C-140.47067307 327.95745205 -131.6157545 327.64086793 -122.76086807 327.32336235 C-109.95898214 326.86433295 -97.15702515 326.40731043 -84.35505126 325.9507413 C-63.57291418 325.20951498 -42.79083356 324.46671776 -22.00878906 323.72290039 C-1.84898828 323.0013574 18.31083944 322.28057431 38.47070312 321.56079102 C39.71824477 321.51624881 40.96578642 321.4717066 42.25113235 321.42581462 C48.51114181 321.20231195 54.77115178 320.97882398 61.03116202 320.75534332 C112.7721583 318.90818486 164.51306273 317.05846342 216.25390625 315.20703125 C216.25390625 314.87703125 216.25390625 314.54703125 216.25390625 314.20703125 C137.45472108 311.21578832 58.65356076 308.28477232 -36.1935463 304.88538933 C-36.9494104 304.85835539 -37.70527451 304.83132145 -38.48404358 304.80346829 C-39.24041415 304.77641633 -39.99678472 304.74936437 -40.7760756 304.72149265 C-42.30563244 304.66678628 -43.83518927 304.61207974 -45.36474609 304.55737305 C-46.12224725 304.53028213 -46.87974841 304.5031912 -47.66020414 304.47527935 C-60.23546988 304.02547138 -72.81061861 303.57246799 -85.38572754 303.11829963 C-98.60317362 302.64097764 -111.8207096 302.166214 -125.0383395 301.69400913 C-132.34146827 301.43304502 -139.64455697 301.17106535 -146.9475441 300.90616417 C-153.7108083 300.66085035 -160.47418919 300.41904799 -167.23766327 300.17957878 C-169.69382533 300.09206951 -172.14994724 300.00342366 -174.60602188 299.91349411 C-181.0283691 299.67868513 -187.45039178 299.46861236 -193.87471628 299.29597831 C-196.69359653 299.20865746 -199.50875968 299.08211162 -202.32592392 298.95157814 C-204.03102659 298.89665514 -205.73617581 298.84315191 -207.44137573 298.79133606 C-208.56971272 298.72300537 -208.56971272 298.72300537 -209.72084439 298.65329427 C-216.66423114 298.51172674 -219.80972215 302.01737955 -224.02246094 306.95507812 Z M-309.60141712 423.50916529 C-311.35290611 426.17930426 -312.56683133 428.8357859 -313.72021484 431.80761719 C-315.46318765 435.88423232 -317.70182208 439.68971144 -319.85888672 443.55859375 C-321.62804986 446.73238815 -323.36708489 449.91980113 -325.0859375 453.12109375 C-325.57441162 454.02811035 -326.06288574 454.93512695 -326.56616211 455.86962891 C-327.84560427 458.26353264 -327.84560427 458.26353264 -328.74609375 461.20703125 C-297.57316207 460.52102933 -266.41090613 459.56460772 -235.24708403 458.55145369 C-228.10753585 458.3194147 -220.96792483 458.089334 -213.82831248 457.85927942 C-200.66242108 457.43499271 -187.49657778 457.00923154 -174.33076286 456.58257866 C-161.32750774 456.16119872 -148.32423067 455.74050569 -135.32092476 455.32069588 C-134.50718483 455.29442403 -133.6934449 455.26815218 -132.85504619 455.24108421 C-128.72112735 455.10762283 -124.58720812 454.97417338 -120.45328874 454.84072853 C-91.30385964 453.89974991 -62.15447885 452.95728272 -33.00512695 452.01391602 C-4.71739123 451.09843745 23.57036665 450.18364816 51.8581543 449.26977539 C52.73276066 449.24151985 53.60736702 449.21326432 54.5084766 449.18415255 C63.29301434 448.90035498 72.07755252 448.61657123 80.86209103 448.33279762 C98.75127922 447.75490928 116.64046443 447.17692871 134.52964783 446.59889221 C135.76295396 446.55904171 135.76295396 446.55904171 137.02117536 446.51838615 C191.76546903 444.74948189 246.509693 442.97842209 301.25390625 441.20703125 C301.25390625 440.87703125 301.25390625 440.54703125 301.25390625 440.20703125 C245.80651575 438.39337965 190.35909577 436.58063157 134.91151428 434.77282715 C134.08999313 434.74604214 133.26847198 434.71925712 132.42205625 434.69166044 C114.56530322 434.10946145 96.70854476 433.52742905 78.85178071 432.94556811 C70.09397584 432.66019487 61.33617218 432.37478484 52.57836914 432.08935547 C51.70689362 432.06095346 50.83541811 432.03255145 49.93753424 432.00328877 C21.72467381 431.0837942 -6.4881067 430.16187352 -34.70084649 429.23868563 C-63.70936683 428.28947081 -92.71796664 427.3427217 -121.72666771 426.39904534 C-125.83026032 426.26555103 -129.93385202 426.13202873 -134.03744316 425.99848938 C-134.84503546 425.97220952 -135.65262776 425.94592966 -136.48469256 425.91885344 C-149.44952998 425.49689281 -162.41428184 425.07235698 -175.37900303 424.64684172 C-188.43420972 424.21841225 -201.4895039 423.79273482 -214.54488993 423.36980522 C-222.28749793 423.11890115 -230.03003242 422.86594855 -237.77247384 422.60995476 C-243.57680134 422.41827633 -249.3812522 422.23057066 -255.18575614 422.04431945 C-257.51728262 421.96890766 -259.84876955 421.89225969 -262.18020798 421.81417292 C-268.36328128 421.6074538 -274.5459752 421.42550764 -280.73088177 421.28331578 C-282.81220529 421.23065852 -284.8932882 421.16785452 -286.97406475 421.09679592 C-290.15523983 420.99020761 -293.33572706 420.91648585 -296.51795101 420.84944916 C-297.48028057 420.81026168 -298.44261013 420.77107419 -299.4341012 420.73069921 C-304.97092805 420.63410687 -304.97092805 420.63410687 -309.60141712 423.50916529 Z M-365.74609375 545.20703125 C-366.35178444 547.00720703 -366.35178444 547.00720703 -366.9697113 548.84375 C-367.19684531 549.51881592 -367.42397932 550.19388184 -367.65799618 550.8894043 C-368.69562691 553.97488893 -369.72931381 557.06169116 -370.76318359 560.1484375 C-371.33044475 561.84021238 -371.89878611 563.5316255 -372.46826172 565.22265625 C-373.29033534 567.66440208 -374.10841387 570.10745658 -374.92578125 572.55078125 C-375.17794403 573.29694702 -375.43010681 574.04311279 -375.68991089 574.81188965 C-377.27571393 579.56830103 -378.58446013 584.32913407 -379.74609375 589.20703125 C-365.79535732 589.3608403 -351.86791874 588.91347734 -337.92529827 588.47950926 C-334.41563573 588.37082009 -330.90588646 588.26499806 -327.39614797 588.15879482 C-321.25783363 587.97266388 -315.11957633 587.78473801 -308.98135376 587.59560585 C-299.85268122 587.31433872 -290.72392421 587.0358894 -281.59514851 586.7579931 C-266.22852033 586.29012338 -250.86196282 585.81996991 -235.49544525 585.34848213 C-220.26936783 584.88130686 -205.04326168 584.41508634 -189.81711578 583.95014763 C-188.86847253 583.92117947 -187.91982927 583.89221131 -186.94243925 583.86236533 C-183.09111548 583.74476288 -179.2397915 583.6271675 -175.38846723 583.50958137 C-140.30286062 582.43836905 -105.21732601 581.36481706 -70.13183594 580.28979492 C-37.06287174 579.27656062 -3.99386435 578.26475248 29.07519531 577.25463867 C30.60201573 577.20800051 30.60201573 577.20800051 32.159681 577.16042015 C37.28699425 577.00380174 42.41430757 576.84718532 47.5416209 576.69056904 C48.55357314 576.65965837 49.56552539 576.62874771 50.60814286 576.59690035 C52.64886396 576.5345655 54.68958508 576.47223109 56.73030622 576.40989714 C89.30544663 575.41487807 121.88055125 574.41868816 154.45564856 573.42225911 C163.97528504 573.13106995 173.49492323 572.83993697 183.01456547 572.54893613 C203.03402964 571.93696205 223.05348249 571.32462264 243.0728952 570.71096701 C251.34765318 570.45733034 259.62241729 570.20389889 267.89720154 569.95112038 C274.77003515 569.74116814 281.64285352 569.53072524 288.51565282 569.3196525 C291.96479734 569.21373788 295.41394986 569.10810737 298.86311808 569.00296576 C316.66223859 568.46020499 334.45850211 567.86026264 352.25390625 567.20703125 C352.25390625 566.87703125 352.25390625 566.54703125 352.25390625 566.20703125 C287.08562617 564.20217576 221.9173108 562.19846926 156.74880981 560.20080566 C155.7830521 560.17120118 154.81729438 560.14159669 153.82227128 560.11109509 C132.82967523 559.4675916 111.83707293 558.82429245 90.84446418 558.18120357 C80.54848928 557.8657948 70.25251576 557.5503409 59.95654297 557.23486328 C58.93201397 557.20347158 57.90748497 557.17207989 56.85190963 557.13973693 C23.69228102 556.12370063 -9.46725537 555.10468974 -42.62674483 554.08412293 C-76.72542358 553.03466603 -110.82419394 551.98823676 -144.92308112 550.94557314 C-149.74824024 550.79802974 -154.57339832 550.65045203 -159.39855576 550.50285339 C-160.3481406 550.47380723 -161.29772544 550.44476107 -162.27608558 550.41483473 C-177.51206308 549.94870439 -192.74794179 549.47941794 -207.9837852 549.00892703 C-223.33104385 548.53506386 -238.67840332 548.06458324 -254.02586879 547.59746563 C-263.12452802 547.32043712 -272.2231019 547.04090512 -281.32156887 546.75763092 C-287.42461479 546.56787457 -293.52775954 546.38154411 -299.63099002 546.19782069 C-303.09229949 546.0935332 -306.55352258 545.98740008 -310.01467873 545.87808257 C-328.6007145 545.29222717 -347.15271914 545.10395615 -365.74609375 545.20703125 Z M-397.74609375 670.20703125 C-399.65584628 680.28329966 -401.21424222 690.33466343 -402.43359375 700.51953125 C-402.56483643 701.61064209 -402.6960791 702.70175293 -402.83129883 703.82592773 C-403.31800806 707.99674182 -403.74609375 712.00210791 -403.74609375 716.20703125 C-394.65721391 716.248963 -385.58685821 716.14357888 -376.50237465 715.86624241 C-375.24063787 715.82939778 -373.97890109 715.79255316 -372.67892987 715.75459203 C-369.20533275 715.65309952 -365.73181612 715.54905904 -362.25830803 715.44457005 C-358.46828322 715.33102288 -354.6781872 715.21989881 -350.88810003 715.10845655 C-344.25457899 714.91307591 -337.62110481 714.71616335 -330.98765945 714.51823044 C-321.12278086 714.22388114 -311.25783273 713.93191453 -301.3928696 713.64041393 C-283.76896466 713.11956624 -266.14513006 712.59636887 -248.52132384 712.07219261 C-233.0920028 711.6132955 -217.66265748 711.15522479 -202.23328781 710.69796562 C-201.20906385 710.66761112 -200.18483989 710.63725661 -199.12957884 710.60598228 C-194.97161223 710.48275578 -190.81364551 710.35953356 -186.6556786 710.23631747 C-147.65442182 709.08055538 -108.6532341 707.92247829 -69.65207906 706.76328889 C-35.03616954 705.73444966 -0.42020807 704.70737645 34.19580078 703.68188477 C43.05512192 703.41942728 51.91444302 703.15696861 60.77376366 702.89449406 C62.41001685 702.84601704 62.41001685 702.84601704 64.07932566 702.79656069 C93.03381969 701.93870501 121.98827334 701.07948876 150.94271433 700.21984476 C154.06078254 700.12727196 157.17885075 700.03469944 160.29691898 699.94212746 C162.36521832 699.88072167 164.43351762 699.81931482 166.5018169 699.75790692 C180.89159894 699.33068483 195.28139656 698.90399083 209.67120512 698.47766301 C228.22785279 697.92788296 246.78447208 697.37716049 265.34104304 696.82479722 C275.14300069 696.53305502 284.94498052 696.24208566 294.74699522 695.95226654 C301.31088881 695.75810851 307.87475023 695.56288681 314.43858746 695.36683295 C318.16761514 695.25547962 321.89665394 695.14455091 325.6257327 695.03492058 C342.50716335 694.53829425 359.38186508 693.96236598 376.25390625 693.20703125 C376.25390625 692.87703125 376.25390625 692.54703125 376.25390625 692.20703125 C306.07511638 690.10664369 235.89628974 688.00748614 165.7172699 685.91479492 C164.15718044 685.86827358 164.15718044 685.86827358 162.56557403 685.82081242 C139.95772255 685.14666126 117.34986455 684.47272878 94.74199984 683.7990213 C83.65376365 683.46859391 72.56552891 683.13811824 61.47729492 682.80761719 C59.82224984 682.75828738 59.82224984 682.75828738 58.13376951 682.70796101 C22.42451116 681.64359826 -13.28465116 680.57605263 -48.99376463 679.50684159 C-85.71518879 678.40733662 -122.43670833 677.31107235 -159.15834947 676.21883704 C-164.35499315 676.06426844 -169.55163574 675.90966311 -174.74827766 675.7550354 C-175.77096721 675.72460609 -176.79365676 675.69417678 -177.8473369 675.66282537 C-194.25431486 675.17455459 -210.66118995 674.68290695 -227.06802831 674.18996969 C-243.59603333 673.69346512 -260.12414328 673.20058191 -276.65236359 672.71129584 C-286.45025812 672.42114063 -296.24806368 672.12830852 -306.04575803 671.831469 C-312.61871729 671.63260469 -319.19177938 671.43740971 -325.76493076 671.24500114 C-329.49217437 671.13579835 -333.2193585 671.02518941 -336.94642346 670.9100374 C-357.2202399 670.28503031 -377.46459949 670.10035627 -397.74609375 670.20703125 Z " fill="#AB48BD" transform="translate(1621.74609375,1848.79296875)"/>
<path d="M0 0 C0.33 0 0.66 0 1 0 C1.04487549 0.9887915 1.08975098 1.97758301 1.13598633 2.99633789 C2.15292461 25.07259703 3.50860431 47.03264588 6 69 C6.08507813 69.75625671 6.17015625 70.51251343 6.2578125 71.29168701 C10.04347399 104.82513818 15.44512181 137.76768338 23.20361328 170.61181641 C23.92212892 173.66870175 24.62017161 176.72919464 25.30859375 179.79296875 C28.01317685 191.70496968 31.40369645 203.33463936 35.06298828 214.98583984 C36.01014779 218.0326432 36.92864857 221.0867937 37.83984375 224.14453125 C49.22221176 262.17815368 63.54229128 299.31628886 80.64306641 335.14648438 C81.96092059 337.91781933 83.25519031 340.69895794 84.54296875 343.484375 C90.02917009 355.28811897 96.04426695 366.7356931 102.38623047 378.10058594 C104.05244389 381.09422446 105.70090467 384.09718003 107.34765625 387.1015625 C122.80227782 415.1673659 140.2583443 442.02245592 159 468 C159.55155762 468.76554199 160.10311523 469.53108398 160.67138672 470.31982422 C168.32312626 480.90706892 176.24049162 491.2111003 184.57177734 501.27197266 C186.60462269 503.73154178 188.61297623 506.21088815 190.625 508.6875 C198.04806613 517.7390267 205.57904993 526.66245243 213.515625 535.26953125 C215.50340323 537.45421204 217.45523581 539.65943566 219.39453125 541.88671875 C229.28203772 553.21344503 239.82226956 563.9226968 250.4375 574.5625 C250.95142303 575.07901123 251.46534607 575.59552246 251.99484253 576.12768555 C257.25239221 581.40612643 262.53702043 586.59842583 268.20092773 591.44604492 C271.15592505 593.99843438 273.97259084 596.69618846 276.8125 599.375 C281.78318955 604.02639178 286.86221192 608.4515005 292.1796875 612.70703125 C294.79658233 614.83461749 297.3445157 617.01989766 299.88598633 619.23583984 C307.6139944 625.9646207 315.65681054 632.20038862 323.83984375 638.36328125 C325.95689463 639.96733969 328.05880392 641.58916524 330.15625 643.21875 C389.35287826 689.13971511 456.37780916 726.44069606 526 754 C522.98963629 756.4496968 520.0475442 757.97529973 516.46875 759.4609375 C515.36313721 759.9252417 514.25752441 760.3895459 513.1184082 760.86791992 C511.9243335 761.36525635 510.73025879 761.86259277 509.5 762.375 C475.83721848 776.59121804 442.97948244 792.5643712 411.65234375 811.41064453 C409.12245507 812.92662164 406.5798966 814.41817375 404.03125 815.90234375 C377.93830185 831.18310846 353.01052774 848.64461289 329 867 C327.89108398 867.84763916 327.89108398 867.84763916 326.75976562 868.71240234 C317.97823503 875.44354593 309.32935666 882.28425879 300.9375 889.49609375 C298.18468822 891.84257294 295.38562179 894.11404054 292.5625 896.375 C286.87859189 900.99525279 281.56675486 905.97706311 276.23046875 910.98828125 C273.7424425 913.3210305 271.2130907 915.59050464 268.625 917.8125 C265.23594611 920.73285495 262.11438104 923.86840845 258.9765625 927.0546875 C257.1674851 928.83516288 255.31118051 930.48542586 253.375 932.125 C244.85475464 939.46422125 236.8349524 947.63209139 229.5703125 956.2109375 C227.79534619 958.2331628 225.91700977 960.11214627 224 962 C220.78565269 965.1711603 217.78249037 968.45582753 214.83984375 971.87890625 C212.80491181 974.22491058 210.71709033 976.5173645 208.625 978.8125 C204.73075382 983.12774576 201.03345276 987.57091755 197.37890625 992.08984375 C195.27045163 994.66915195 193.1266891 997.20959676 190.96069336 999.74023438 C185.53180427 1006.08768354 180.34936078 1012.58117971 175.31982422 1019.25048828 C173.92738963 1021.0962497 172.52816669 1022.93675292 171.12890625 1024.77734375 C147.49576477 1055.96270572 126.02747892 1088.81296325 107 1123 C106.23502197 1124.37333496 106.23502197 1124.37333496 105.45458984 1125.77441406 C75.38817937 1179.98946129 51.10523579 1237.36980802 34 1297 C33.80770813 1297.66948669 33.61541626 1298.33897339 33.41729736 1299.02874756 C27.24511918 1320.57444365 21.97726647 1342.17409881 17.74072266 1364.18164062 C17.06143056 1367.68333091 16.35519801 1371.17805217 15.63671875 1374.671875 C6.63844031 1418.92710667 2.9180111 1463.94233266 1 1509 C0.67 1509 0.34 1509 0 1509 C0 1011.03 0 513.06 0 0 Z " fill="#E5754D" transform="translate(1093,1094)"/>
</svg>
